<?xml version="1.0" encoding="utf-8" ?>
<svg baseProfile="full" height="100%" version="1.1" viewBox="0,0,1000,300" width="100%" xmlns="http://www.w3.org/2000/svg" xmlns:ev="http://www.w3.org/2001/xml-events" xmlns:xlink="http://www.w3.org/1999/xlink"><defs /><rect fill="white" height="300" width="1000" x="0" y="0" /><path d="M0,0 M368.1032409667969,47.150787353515625 L368.342529296875,46.801025390625 L368.6616516113281,46.34941864013672 L368.9691162109375,45.919456481933594 L369.1493835449219,45.68937683105469 L369.193115234375,45.688804626464844 L369.1286926269531,45.971824645996094 L368.9416198730469,46.604408264160156 L368.6071472167969,47.6739501953125 L368.11041259765625,49.19169616699219 L367.47418212890625,51.11833190917969 L366.7392578125,53.36216735839844 L365.96331787109375,55.8076057434082 L365.16387939453125,58.342098236083984 L364.3665771484375,60.84395217895508 L363.6071472167969,63.19493865966797 L362.94390869140625,65.27555084228516 L362.422119140625,66.95915222167969 L362.066650390625,68.15870666503906 L361.8700866699219,68.8545913696289 L361.7862548828125,69.14869689941406 M360.68902587890625,51.4591064453125 L361.0892639160156,51.14960861206055 L361.95574951171875,50.733245849609375 L363.411865234375,50.32130813598633 L365.43780517578125,50.05650329589844 L367.97442626953125,49.92558288574219 L370.86474609375,49.879276275634766 L373.91033935546875,49.85429382324219 L376.8998107910156,49.81959533691406 L379.6621398925781,49.75323486328125 L382.06390380859375,49.64645004272461 L384.0574645996094,49.50849914550781 L385.53582763671875,49.37165069580078 L386.4140625,49.2803840637207 L386.6781921386719,49.275604248046875 L386.55572509765625,49.329708099365234 L386.2949523925781,49.39945602416992 M364.5822448730469,59.91659164428711 L364.9793395996094,59.87093734741211 L365.8462219238281,59.750606536865234 L367.2590026855469,59.54604721069336 L369.1396179199219,59.280670166015625 L371.3795166015625,59.008338928222656 L373.80377197265625,58.783138275146484 L376.2331848144531,58.63513946533203 L378.5054931640625,58.587974548339844 L380.4596862792969,58.665771484375 L381.978759765625,58.89869689941406 L383.0209655761719,59.32846450805664 L383.5840148925781,59.9857177734375 L383.7113037109375,60.86767578125 L383.4656066894531,61.966224670410156 L382.9361877441406,63.24040603637695 L382.24395751953125,64.6318359375 L381.5299072265625,66.05796813964844 L380.92962646484375,67.42198944091797 L380.53900146484375,68.62670135498047 L380.4413146972656,69.5391845703125 L380.6448059082031,70.04466247558594 L381.1021423339844,70.09689331054688 L381.5894775390625,69.88131713867188 L381.95306396484375,69.60635375976562 M385.72821044921875,52.87887954711914 L385.70263671875,52.722259521484375 L385.7034606933594,52.56096649169922 L385.726318359375,52.442562103271484 L385.76678466796875,52.41460037231445 M397.6708679199219,64.03857421875 L397.6761169433594,63.61625671386719 L397.6061706542969,62.89097213745117 L397.35601806640625,61.94511795043945 L396.826171875,60.977935791015625 L395.9736022949219,60.119606018066406 L394.8125,59.4775390625 L393.40496826171875,59.12356948852539 L391.889892578125,59.127471923828125 L390.4005432128906,59.5174674987793 L389.0977783203125,60.27043151855469 L388.13897705078125,61.32017135620117 L387.6728515625,62.56688690185547 L387.78936767578125,63.882835388183594 L388.531982421875,65.11613464355469 L389.8556213378906,66.10310363769531 L391.6624755859375,66.7119140625 L393.8070983886719,66.86164093017578 L396.122802734375,66.55443572998047 L398.38897705078125,65.8547134399414 L400.3896179199219,64.86770629882812 L401.9443664550781,63.74465560913086 L402.95758056640625,62.65635681152344 L403.4540710449219,61.74650573730469 L403.5477294921875,61.14435577392578 L403.35369873046875,60.9332160949707 L402.9974670410156,61.15687561035156 L402.5731506347656,61.83842468261719 L402.1709899902344,62.96009063720703 L401.9026184082031,64.44215393066406 L401.8682861328125,66.20222473144531 L402.0966491699219,68.14552307128906 L402.5586853027344,70.17100524902344 L403.1434326171875,72.177978515625 L403.7264404296875,74.07251739501953 L404.1889953613281,75.75142669677734 L404.46087646484375,77.1435546875 L404.4882507324219,78.21243286132812 L404.23431396484375,78.93260955810547 L403.6734313964844,79.30438232421875 L402.8080749511719,79.35025024414062 L401.64849853515625,79.10018157958984 L400.2689514160156,78.59198760986328 L398.747802734375,77.88899230957031 L397.17071533203125,77.04837799072266 L395.6359558105469,76.1432113647461 L394.2346496582031,75.2354507446289 L393.0223693847656,74.373779296875 L392.1426696777344,73.57402038574219 L391.68695068359375,72.8592529296875 L391.6925354003906,72.24059295654297 L391.957275390625,71.79467010498047 L392.2663269042969,71.53952026367188 M415.1288757324219,62.55270767211914 L415.1732177734375,62.08570098876953 L415.12152099609375,61.40329360961914 L414.845947265625,60.648223876953125 L414.24005126953125,60.06936264038086 L413.25885009765625,59.73540115356445 L411.95635986328125,59.685096740722656 L410.4556884765625,59.913360595703125 L408.90582275390625,60.413761138916016 L407.4954528808594,61.13215637207031 L406.42266845703125,62.01927185058594 L405.8260498046875,62.999229431152344 L405.84112548828125,63.994422912597656 L406.5462646484375,64.92176055908203 L407.9323425292969,65.67578125 L409.90533447265625,66.15927124023438 L412.2623291015625,66.31089782714844 L414.7216491699219,66.11250305175781 L417.00970458984375,65.59784698486328 L418.88665771484375,64.82819366455078 L420.18011474609375,63.87017822265625 L420.8232116699219,62.804996490478516 L420.84417724609375,61.716644287109375 L420.3670959472656,60.69757843017578 L419.6341247558594,59.855472564697266 L418.90924072265625,59.267578125 L418.4031677246094,58.961578369140625 L418.16485595703125,58.87001037597656 L418.12347412109375,58.89056396484375 M452.5567626953125,48.641151428222656 L452.56561279296875,48.51909255981445 L452.5234069824219,48.464019775390625 L452.342041015625,48.63946533203125 L451.91571044921875,49.2288703918457 L451.1529541015625,50.30324935913086 L450.00653076171875,51.85694885253906 L448.4872741699219,53.830894470214844 L446.65679931640625,56.13854217529297 L444.59564208984375,58.64432907104492 L442.4334716796875,61.19047927856445 L440.3294677734375,63.581947326660156 L438.4695129394531,65.61412811279297 L437.0212097167969,67.13436126708984 L436.0766296386719,68.08574676513672 L435.59063720703125,68.54306030273438 L435.4249267578125,68.68251037597656 M448.5204772949219,48.79901123046875 L448.86309814453125,48.31574630737305 L449.368408203125,47.77021408081055 L449.93389892578125,47.42706298828125 L450.4021301269531,47.59961700439453 L450.7544250488281,48.33476638793945 L451.0037841796875,49.63153839111328 L451.22186279296875,51.40723419189453 L451.43389892578125,53.59510803222656 L451.6593933105469,56.04032516479492 L451.8971252441406,58.55933380126953 L452.1395263671875,60.97724151611328 L452.3800964355469,63.14963912963867 L452.61505126953125,64.95023345947266 L452.81939697265625,66.3109130859375 L452.96319580078125,67.16140747070312 L453.0360107421875,67.57286071777344 M443.01055908203125,61.95225524902344 L442.9970397949219,61.75941848754883 L443.2085876464844,61.47015380859375 L443.8245849609375,61.14104461669922 L444.94580078125,60.861480712890625 L446.4949951171875,60.65190887451172 L448.3277893066406,60.4879035949707 L450.296142578125,60.345947265625 L452.29949951171875,60.20938491821289 L454.21038818359375,60.071006774902344 L455.9078063964844,59.93446731567383 L457.1384582519531,59.829803466796875 L457.83209228515625,59.762908935546875 M461.65753173828125,59.54530715942383 L461.59918212890625,59.765777587890625 L461.4992370605469,60.24168014526367 L461.343994140625,60.99777603149414 L461.1257019042969,61.973262786865234 L460.8182373046875,63.0772819519043 L460.46356201171875,64.20359802246094 L460.0994873046875,65.24561309814453 L459.7877197265625,66.0966796875 L459.5743408203125,66.63530731201172 L459.4765625,66.78345489501953 L459.482421875,66.49383544921875 L459.59759521484375,65.7652359008789 L459.7988586425781,64.66751098632812 L460.0677185058594,63.30701446533203 L460.39617919921875,61.79285430908203 L460.7919616699219,60.262882232666016 L461.2757568359375,58.823455810546875 L461.88787841796875,57.55613708496094 L462.66644287109375,56.536922454833984 L463.63494873046875,55.821685791015625 L464.751708984375,55.42871856689453 L465.9722900390625,55.364139556884766 L467.239501953125,55.59416961669922 L468.5373229980469,56.06953811645508 L469.83917236328125,56.70014953613281 L471.08056640625,57.372398376464844 L472.11920166015625,57.95636749267578 L472.8402099609375,58.35224533081055 L473.1671447753906,58.517601013183594 L473.15673828125,58.51527404785156 L472.8656005859375,58.44450759887695 L472.33355712890625,58.41490173339844 L471.6184387207031,58.516395568847656 L470.8036193847656,58.796539306640625 L470.01153564453125,59.2635383605957 L469.4334716796875,59.907569885253906 L469.20306396484375,60.68803405761719 L469.3868103027344,61.532711029052734 L470.0179443359375,62.35652160644531 L471.1060791015625,63.03187942504883 L472.5648193359375,63.45750045776367 L474.2459716796875,63.58155059814453 L475.685791015625,63.51177215576172 L476.61669921875,63.37803268432617 M482.69598388671875,57.017215728759766 L482.9290771484375,56.75059509277344 L483.3484191894531,56.382171630859375 L483.947998046875,56.01225280761719 L484.69781494140625,55.7963981628418 L485.61834716796875,55.77302932739258 L486.71533203125,55.95970916748047 L487.9390563964844,56.34737777709961 L489.17938232421875,56.91303253173828 L490.27484130859375,57.60564041137695 L491.0953369140625,58.38425827026367 L491.53106689453125,59.20673370361328 L491.49566650390625,60.04847717285156 L490.9190368652344,60.88666534423828 L489.76849365234375,61.679832458496094 L488.072021484375,62.38591766357422 L485.96923828125,62.97495651245117 L483.658203125,63.41579055786133 L481.36285400390625,63.680267333984375 L479.28460693359375,63.74321365356445 L477.57623291015625,63.59317398071289 L476.338134765625,63.2535285949707 L475.63873291015625,62.76555633544922 L475.4891357421875,62.172019958496094 L475.9019775390625,61.516204833984375 L476.83984375,60.851287841796875 L478.214111328125,60.23951721191406 L479.88897705078125,59.76557922363281 L481.69158935546875,59.49907684326172 L483.4456787109375,59.4866943359375 L485.05657958984375,59.7561149597168 L486.4571838378906,60.294036865234375 L487.65283203125,61.089054107666016 L488.66131591796875,62.07285690307617 L489.49859619140625,63.129398345947266 L490.089599609375,63.99366760253906 L490.431640625,64.53564453125 M501.224853515625,57.883358001708984 L501.2830810546875,57.350257873535156 L501.2674560546875,56.57337951660156 L501.0652160644531,55.72007369995117 L500.57818603515625,55.05183410644531 L499.7846374511719,54.64299392700195 L498.69952392578125,54.53923416137695 L497.37005615234375,54.73641586303711 L495.88079833984375,55.268550872802734 L494.35308837890625,56.12592315673828 L492.9720764160156,57.26036834716797 L491.91424560546875,58.59695816040039 L491.32208251953125,60.03074264526367 L491.2707214355469,61.41664123535156 L491.77569580078125,62.603214263916016 L492.79144287109375,63.45695114135742 L494.26385498046875,63.87975311279297 L496.09332275390625,63.83338165283203 L498.1476745605469,63.341548919677734 L500.2666015625,62.466346740722656 L502.2840576171875,61.307071685791016 L504.0629577636719,60.00311279296875 L505.49810791015625,58.71106719970703 L506.54095458984375,57.582847595214844 L507.1795654296875,56.72461700439453 L507.4444580078125,56.216163635253906 L507.41107177734375,56.09458923339844 L507.1783447265625,56.378326416015625 L506.8172302246094,57.05577087402344 L506.4365234375,58.064109802246094 L506.1309509277344,59.26626968383789 L505.9790344238281,60.52967834472656 L506.1122741699219,61.68316650390625 L506.5774841308594,62.58694076538086 L507.3377990722656,63.15970230102539 L508.1077880859375,63.43052673339844 L508.67132568359375,63.492095947265625 M514.8448486328125,47.201026916503906 L514.9352416992188,46.98466110229492 L515.072509765625,46.841922760009766 L515.2049560546875,46.97113037109375 L515.26416015625,47.56969451904297 L515.2213134765625,48.649391174316406 L515.044921875,50.13898468017578 L514.754638671875,51.9475212097168 L514.3948364257812,53.988529205322266 L513.9904174804688,56.15205383300781 L513.5775756835938,58.31911849975586 L513.1717529296875,60.366085052490234 L512.832275390625,62.13937759399414 L512.6268310546875,63.501976013183594 L512.6233520507812,64.37177276611328 L512.7447509765625,64.7957534790039 L512.8985595703125,64.91707611083984 M521.0032348632812,57.27020263671875 L521.2215576171875,56.872135162353516 L521.4064331054688,56.32890701293945 L521.3485107421875,55.79522705078125 L520.8175659179688,55.491641998291016 L519.7615966796875,55.46106719970703 L518.2282104492188,55.707279205322266 L516.4005126953125,56.1555061340332 L514.5116577148438,56.75693893432617 L512.803955078125,57.42450714111328 L511.50689697265625,58.08746337890625 L510.7860107421875,58.68942642211914 L510.7274475097656,59.200958251953125 L511.37799072265625,59.58755111694336 L512.7372436523438,59.832847595214844 L514.6921997070312,59.93625259399414 L517.0722045898438,59.93563461303711 L519.6331176757812,59.87269592285156 L522.1254272460938,59.79261779785156 L524.3646850585938,59.72663497924805 L526.2233276367188,59.68184280395508 L527.6209716796875,59.68418502807617 L528.5323486328125,59.7537727355957 L528.9553833007812,59.91084671020508 L528.9615478515625,60.176185607910156 L528.670654296875,60.564849853515625 L528.2041625976562,61.04790115356445 L527.7186279296875,61.60432434082031 L527.371826171875,62.12868118286133 L527.25439453125,62.51915740966797 L527.4058837890625,62.702232360839844 L527.6781005859375,62.72264099121094 L527.9173583984375,62.656368255615234 M528.0224609375,48.392921447753906 L528.0618286132812,48.11235809326172 L528.1425170898438,47.753761291503906 L528.2384033203125,47.420753479003906 L528.3187255859375,47.276344299316406 L528.365966796875,47.343902587890625 L528.3895263671875,47.60108184814453 L528.39892578125,47.89521408081055 L528.413330078125,48.134132385253906 M554.9464111328125,59.22245407104492 L555.2451782226562,58.86343765258789 L555.777099609375,58.19662094116211 L556.5065307617188,57.22932815551758 L557.3197021484375,56.05636978149414 L558.1727294921875,54.730159759521484 L559.011474609375,53.317138671875 L559.782470703125,51.89092254638672 L560.4373168945312,50.569156646728516 L560.924560546875,49.45751190185547 L561.2255249023438,48.63214111328125 L561.3533935546875,48.148162841796875 L561.31201171875,48.05155563354492 L561.107177734375,48.39539337158203 L560.738037109375,49.24834442138672 L560.2202758789062,50.60884094238281 L559.612060546875,52.4034423828125 L559.0072021484375,54.49615478515625 L558.5044555664062,56.71894073486328 L558.19970703125,58.90450668334961 L558.1539306640625,60.9298210144043 L558.3848266601562,62.678619384765625 L558.8864135742188,64.06062316894531 L559.6434326171875,65.01549530029297 L560.61572265625,65.49095153808594 L561.7826538085938,65.44314575195312 L563.128173828125,64.85787200927734 L564.6179809570312,63.7473030090332 L566.1963500976562,62.16823959350586 L567.7777709960938,60.2115364074707 L569.2672119140625,57.987281799316406 L570.6209716796875,55.59912872314453 L571.8201904296875,53.15454864501953 L572.8737182617188,50.7884635925293 L573.7578125,48.67504119873047 L574.426513671875,46.95814514160156 L574.8477783203125,45.754051208496094 L575.0172119140625,45.10265350341797 L574.9615478515625,45.0 L574.7406005859375,45.44474792480469 L574.400146484375,46.46259689331055 L573.9989013671875,48.0134391784668 L573.5955810546875,50.02098846435547 L573.2445068359375,52.33456802368164 L573.01611328125,54.77383041381836 L572.9630737304688,57.15202331542969 L573.124267578125,59.30571746826172 L573.5138549804688,61.08036804199219 L574.1806640625,62.357704162597656 L575.1249389648438,63.08698272705078 L576.307373046875,63.31572723388672 L577.3800659179688,63.251564025878906 L578.11962890625,63.096900939941406 M584.7076416015625,59.68266296386719 L584.7608032226562,59.213626861572266 L584.80712890625,58.448265075683594 L584.8287353515625,57.472007751464844 L584.8006591796875,56.44993591308594 L584.7325439453125,55.42123794555664 L584.6441650390625,54.408958435058594 L584.54345703125,53.412391662597656 L584.444580078125,52.473304748535156 L584.3921508789062,51.627685546875 L584.3984375,50.902565002441406 L584.4560546875,50.334327697753906 L584.5511474609375,49.9471435546875 L584.640625,49.76652526855469 L584.713134765625,49.838531494140625 L584.7767333984375,50.19114685058594 L584.8228759765625,50.85585021972656 L584.8438720703125,51.8282356262207 L584.8299560546875,53.0756721496582 L584.7702026367188,54.5492057800293 L584.702392578125,56.206512451171875 L584.6737060546875,57.97592544555664 L584.729248046875,59.79139709472656 L584.8955078125,61.56089401245117 L585.157470703125,63.20722579956055 L585.4686279296875,64.65016174316406 L585.7833251953125,65.82947540283203 L586.02783203125,66.6985092163086 L586.164306640625,67.2201919555664 L586.2001953125,67.39885711669922 L586.182861328125,67.3029556274414 L586.1554565429688,67.09459686279297 L586.1504516601562,66.90576171875 M594.998779296875,61.526214599609375 L595.1414794921875,61.153358459472656 L595.270751953125,60.57951354980469 L595.2655639648438,59.90388107299805 L595.0010986328125,59.32098388671875 L594.447021484375,58.907264709472656 L593.6024169921875,58.70688247680664 L592.52197265625,58.738380432128906 L591.2686767578125,59.029605865478516 L589.927001953125,59.58322525024414 L588.6204833984375,60.41020202636719 L587.4561767578125,61.48389434814453 L586.552978515625,62.72721862792969 L586.0196533203125,64.02313232421875 L585.9315185546875,65.21908569335938 L586.3111572265625,66.16683197021484 L587.1448974609375,66.76082611083984 L588.341064453125,66.93949127197266 L589.7996215820312,66.69190216064453 L591.3839111328125,66.0612564086914 L592.9649658203125,65.11061096191406 L594.4219970703125,63.94137191772461 L595.6622924804688,62.664493560791016 L596.61474609375,61.41908264160156 L597.2673950195312,60.33845901489258 L597.62841796875,59.53668975830078 L597.7489013671875,59.083011627197266 L597.6827392578125,59.02752685546875 L597.48486328125,59.370094299316406 L597.2195434570312,60.10689163208008 L596.9628295898438,61.16233444213867 L596.7919311523438,62.39599609375 L596.7964477539062,63.638450622558594 L597.026123046875,64.73540496826172 L597.515625,65.54302215576172 L598.2612915039062,65.9791030883789 L599.2235107421875,65.98190307617188 L600.332275390625,65.5343017578125 L601.48828125,64.67337799072266 L602.5789794921875,63.51291275024414 L603.533935546875,62.201622009277344 L604.2947998046875,60.921085357666016 L604.8536376953125,59.82231903076172 L605.2201538085938,59.02106857299805 L605.393310546875,58.55463409423828 L605.3963623046875,58.455257415771484 L605.2557373046875,58.720951080322266 L604.99658203125,59.350032806396484 L604.7091064453125,60.29829025268555 L604.486328125,61.47601318359375 L604.41650390625,62.722412109375 L604.5911254882812,63.89570617675781 L605.0384521484375,64.85319519042969 L605.7457275390625,65.50701904296875 L606.7066040039062,65.81473541259766 L607.8743896484375,65.77838134765625 L609.1790771484375,65.40910339355469 L610.5364990234375,64.7564926147461 L611.83544921875,63.86793899536133 L612.9729614257812,62.818748474121094 L613.8941650390625,61.71306228637695 L614.5849609375,60.68077850341797 L615.0587158203125,59.81501007080078 L615.3360595703125,59.19330978393555 L615.4449462890625,58.837669372558594 L615.4093017578125,58.770729064941406 L615.260498046875,59.0107421875 L615.032470703125,59.57905960083008 L614.7711181640625,60.44765090942383 L614.52392578125,61.55098342895508 L614.375,62.76847457885742 L614.4039306640625,63.98647689819336 L614.7333984375,65.05314636230469 L615.403076171875,65.85086059570312 L616.37744140625,66.30325317382812 L617.3130493164062,66.46749877929688 L617.976806640625,66.45930480957031 M625.581787109375,49.559391021728516 L625.6268920898438,49.565155029296875 L625.6429443359375,49.71856689453125 L625.567138671875,50.145687103271484 L625.3480834960938,50.92262649536133 L625.0057373046875,52.02650833129883 L624.594482421875,53.4014892578125 L624.18701171875,54.96751403808594 L623.856689453125,56.63078689575195 L623.6461181640625,58.305484771728516 L623.5826416015625,59.89012908935547 L623.6777954101562,61.310028076171875 L623.984375,62.51934051513672 L624.5260009765625,63.48466873168945 L625.2886962890625,64.1836166381836 L626.0209350585938,64.60655975341797 L626.544677734375,64.7986068725586 M639.5696411132812,60.69281768798828 L639.5877075195312,60.25021743774414 L639.4678955078125,59.549129486083984 L639.0975952148438,58.70519256591797 L638.3945922851562,57.93482971191406 L637.3717651367188,57.31764221191406 L636.1129150390625,56.95402526855469 L634.69921875,56.8902587890625 L633.22119140625,57.18305587768555 L631.7890014648438,57.844818115234375 L630.4996948242188,58.83454895019531 L629.45556640625,60.0479621887207 L628.796630859375,61.38398361206055 L628.6063842773438,62.69242477416992 L628.9481811523438,63.83546829223633 L629.8212280273438,64.68392181396484 L631.1312255859375,65.14820861816406 L632.7473754882812,65.1740951538086 L634.52587890625,64.77738952636719 L636.3017578125,63.99630355834961 L637.9407958984375,62.946720123291016 L639.33447265625,61.77793502807617 L640.39501953125,60.658416748046875 L641.1004638671875,59.71879196166992 L641.4847412109375,59.05261993408203 L641.60205078125,58.691856384277344 L641.5202026367188,58.68513488769531 L641.30615234375,59.06216812133789 L641.006103515625,59.83477020263672 L640.7007446289062,60.945289611816406 L640.474853515625,62.26809310913086 L640.3857421875,63.6304817199707 L640.510498046875,64.86892700195312 L640.8770751953125,65.83323669433594 L641.4528198242188,66.45538330078125 L642.0302734375,66.76313018798828 L642.4522705078125,66.85352325439453 M647.2891845703125,59.393333435058594 L647.296875,59.00138473510742 L647.2994995117188,58.52350616455078 L647.277587890625,58.153865814208984 L647.2088012695312,58.14336013793945 L647.0657958984375,58.56011962890625 L646.844970703125,59.39033889770508 L646.55615234375,60.52549362182617 L646.2310791015625,61.85397720336914 L645.9273681640625,63.1956787109375 L645.6778564453125,64.38021850585938 L645.4953002929688,65.29397583007812 L645.3865356445312,65.8509521484375 L645.3828125,65.9935073852539 L645.5185546875,65.6925277709961 L645.8594970703125,64.9592514038086 L646.4197998046875,63.866485595703125 L647.1889038085938,62.54867935180664 L648.1236572265625,61.159305572509766 L649.2025756835938,59.83706283569336 L650.355712890625,58.69270324707031 L651.5318603515625,57.81948471069336 L652.674560546875,57.28623962402344 L653.736572265625,57.144676208496094 L654.6904296875,57.40810012817383 L655.5385131835938,58.04252243041992 L656.2413330078125,58.9725227355957 L656.7958984375,60.10554885864258 L657.22900390625,61.34477615356445 L657.5711669921875,62.603843688964844 L657.8604736328125,63.80921936035156 L658.1569213867188,64.89543151855469 L658.4747314453125,65.78767395019531 L658.83544921875,66.43992614746094 L659.1605834960938,66.83079528808594 L659.3883056640625,67.00508117675781 M669.2356567382812,62.689579010009766 L669.414794921875,62.19840621948242 L669.58447265625,61.41707229614258 L669.624755859375,60.472843170166016 L669.4029541015625,59.594017028808594 L668.911376953125,58.87834548950195 L668.1650390625,58.41478729248047 L667.1680908203125,58.2452392578125 L665.9564819335938,58.428314208984375 L664.6263427734375,58.991607666015625 L663.3199462890625,59.89474868774414 L662.2191772460938,61.05509567260742 L661.483642578125,62.34942626953125 L661.2056884765625,63.63085174560547 L661.4309692382812,64.75818634033203 L662.1539306640625,65.60682678222656 L663.3009643554688,66.08351135253906 L664.768798828125,66.13700866699219 L666.4117431640625,65.76504516601562 L668.0709228515625,65.02190399169922 L669.59619140625,64.00119018554688 L670.89697265625,62.82379913330078 L671.9093017578125,61.6468391418457 L672.6279296875,60.61192321777344 L673.0822143554688,59.8072624206543 L673.314208984375,59.29945373535156 L673.360595703125,59.132659912109375 L673.269287109375,59.31524658203125 L673.0699462890625,59.96501922607422 L672.8109130859375,61.103240966796875 L672.5648193359375,62.6201057434082 L672.3895874023438,64.02947235107422 L672.30029296875,65.00529479980469 " fill="none" stroke="black" stroke-linecap="round" stroke-width="1" /><path d="M0,0 M363.0877380371094,106.60977172851562 L363.0810241699219,106.51216888427734 L363.072265625,106.40943908691406 L363.0683288574219,106.3922348022461 L363.06427001953125,106.5862808227539 L363.0491638183594,107.0853042602539 L362.98980712890625,107.99345397949219 L362.8376159667969,109.34081268310547 L362.5669860839844,111.14149475097656 L362.1868896484375,113.37418365478516 L361.731689453125,115.97261810302734 L361.2760925292969,118.8399658203125 L360.8756103515625,121.83749389648438 L360.5650939941406,124.77509307861328 L360.3603515625,127.45671081542969 L360.23974609375,129.72616577148438 L360.1785888671875,131.390625 L360.1605224609375,132.3343048095703 L360.18121337890625,132.55198669433594 L360.217041015625,132.34173583984375 L360.25689697265625,132.0123291015625 M356.2369689941406,107.60542297363281 L356.4114074707031,107.43212890625 L356.9600830078125,107.21277618408203 L358.0514221191406,106.99752807617188 L359.7622375488281,106.84393310546875 L362.05767822265625,106.70909118652344 L364.8287048339844,106.5608139038086 L367.9230041503906,106.37872314453125 L371.1800537109375,106.19085693359375 L374.3649597167969,106.02117919921875 L377.2264404296875,105.89498901367188 L379.5769958496094,105.81306457519531 L381.2239074707031,105.8042984008789 L382.07342529296875,105.87720489501953 L382.1693420410156,106.05069732666016 L381.8551940917969,106.24929809570312 L381.45458984375,106.41223907470703 M360.58624267578125,120.66246032714844 L360.68121337890625,120.6586685180664 L361.0613098144531,120.58027648925781 L361.9071350097656,120.38153076171875 L363.3261413574219,120.03926849365234 L365.2957458496094,119.60282135009766 L367.67840576171875,119.1348648071289 L370.28125,118.70581817626953 L372.9580078125,118.36785125732422 L375.5410461425781,118.15757751464844 L377.87994384765625,118.07090759277344 L379.613037109375,118.06935119628906 L380.6241455078125,118.10111999511719 M383.9572448730469,123.41862487792969 L384.01654052734375,123.40950775146484 L384.095947265625,123.3987808227539 L384.17523193359375,123.4446792602539 L384.215576171875,123.6518783569336 L384.1923828125,124.1488265991211 L384.08349609375,124.99555969238281 L383.88287353515625,126.17711639404297 L383.61138916015625,127.60105895996094 L383.3194885253906,129.1282958984375 L383.06201171875,130.60635375976562 L382.8661804199219,131.90423583984375 L382.7803955078125,132.8333740234375 L382.8389892578125,133.26968383789062 L383.0572814941406,133.182373046875 L383.3258972167969,132.82382202148438 L383.55096435546875,132.44686889648438 M385.4910888671875,112.34974670410156 L385.3786926269531,111.89315795898438 L385.2488708496094,111.30171966552734 L385.1307067871094,110.74717712402344 L385.11798095703125,110.47291564941406 L385.2490539550781,110.4931640625 L385.5376892089844,110.74533081054688 L385.85400390625,111.03618621826172 L386.1146545410156,111.27047729492188 M402.193359375,125.93567657470703 L402.07281494140625,125.44284057617188 L401.77667236328125,124.69297790527344 L401.2476806640625,123.81182098388672 L400.48175048828125,123.03136444091797 L399.51629638671875,122.43696594238281 L398.3851013183594,122.07810974121094 L397.1416015625,121.97479248046875 L395.8524169921875,122.18869018554688 L394.59149169921875,122.73274993896484 L393.46099853515625,123.6095962524414 L392.574462890625,124.79049682617188 L392.00531005859375,126.16663360595703 L391.8349609375,127.58464050292969 L392.1222839355469,128.87698364257812 L392.90130615234375,129.8746337890625 L394.1753234863281,130.46385192871094 L395.8817443847656,130.5901641845703 L397.87811279296875,130.24176025390625 L399.97393798828125,129.46145629882812 L401.93865966796875,128.34320068359375 L403.5826416015625,127.03768157958984 L404.769287109375,125.71984100341797 L405.44744873046875,124.54740905761719 L405.6795959472656,123.64451599121094 L405.59197998046875,123.08837127685547 L405.3222961425781,122.92176818847656 L405.022705078125,123.20299530029297 L404.7838134765625,123.95196533203125 L404.664306640625,125.13372802734375 L404.71685791015625,126.67801666259766 L404.9641418457031,128.4866943359375 L405.3992004394531,130.4652862548828 L405.9971008300781,132.55149841308594 L406.6734924316406,134.6574249267578 L407.3152160644531,136.68096923828125 L407.7939147949219,138.51968383789062 L407.9836730957031,140.07586669921875 L407.80145263671875,141.29347229003906 L407.2191162109375,142.14768981933594 L406.2742614746094,142.62911987304688 L405.04046630859375,142.74945068359375 L403.6034851074219,142.53811645507812 L402.0453796386719,142.03109741210938 L400.4417724609375,141.29296875 L398.8548889160156,140.39700317382812 L397.370361328125,139.4278106689453 L396.06451416015625,138.46038818359375 L395.06243896484375,137.529541015625 L394.4654541015625,136.65869140625 L394.31646728515625,135.87173461914062 L394.44219970703125,135.27967834472656 L394.6529846191406,134.9278564453125 M422.6133117675781,123.82240295410156 L422.6710205078125,123.32710266113281 L422.64013671875,122.56314086914062 L422.3974609375,121.67020416259766 L421.82342529296875,120.88493347167969 L420.88140869140625,120.28968048095703 L419.57440185546875,119.95331573486328 L417.9866027832031,119.89505004882812 L416.2321472167969,120.15103912353516 L414.4721374511719,120.72661590576172 L412.88482666015625,121.5798568725586 L411.61822509765625,122.64851379394531 L410.7821044921875,123.85751342773438 L410.4931945800781,125.11664581298828 L410.82623291015625,126.32235717773438 L411.8077392578125,127.34916687011719 L413.39111328125,128.0667724609375 L415.4270324707031,128.38238525390625 L417.6845397949219,128.2579345703125 L419.92071533203125,127.7155990600586 L421.9288024902344,126.8300552368164 L423.55328369140625,125.68958282470703 L424.7080078125,124.40330505371094 L425.3585205078125,123.0992202758789 L425.4747314453125,121.89391326904297 L425.1184387207031,120.88914489746094 L424.44970703125,120.15640258789062 L423.7803039550781,119.7174072265625 L423.318359375,119.51915740966797 M459.4144287109375,108.34034729003906 L459.39544677734375,108.29415893554688 L459.298095703125,108.3971176147461 L459.04248046875,108.81793212890625 L458.5559997558594,109.7280502319336 L457.82061767578125,111.17503356933594 L456.81610107421875,113.10057067871094 L455.5947265625,115.40705871582031 L454.2137451171875,117.96277618408203 L452.7325134277344,120.60484313964844 L451.2206726074219,123.19001007080078 L449.7568359375,125.5582504272461 L448.45086669921875,127.49674224853516 L447.43994140625,128.85272216796875 L446.8228759765625,129.5598602294922 L446.5600280761719,129.76901245117188 L446.52789306640625,129.72018432617188 M457.340576171875,106.31689453125 L457.369873046875,105.84430694580078 L457.4484558105469,105.32051849365234 L457.56884765625,105.0 L457.72149658203125,105.17020416259766 L457.89910888671875,105.86843872070312 L458.12078857421875,107.07093811035156 L458.40106201171875,108.69734954833984 L458.7691955566406,110.73077392578125 L459.21600341796875,113.07637023925781 L459.7255554199219,115.6049575805664 L460.2572937011719,118.1934585571289 L460.7835693359375,120.70724487304688 L461.23291015625,122.99893951416016 L461.57208251953125,124.95641326904297 L461.78253173828125,126.49356079101562 L461.8618469238281,127.5118408203125 L461.81976318359375,127.98065948486328 L461.6943359375,127.94341278076172 L461.5453186035156,127.65010070800781 L461.43194580078125,127.33753967285156 M452.26251220703125,119.02462768554688 L452.21258544921875,118.99954223632812 L452.32470703125,118.98146057128906 L452.76727294921875,118.98139190673828 L453.6834716796875,119.005126953125 L455.0662536621094,119.03904724121094 L456.811279296875,119.06895446777344 L458.76373291015625,119.09516143798828 L460.8216857910156,119.13188171386719 L462.83636474609375,119.17970275878906 L464.6922302246094,119.23526000976562 L466.08843994140625,119.28486633300781 L466.90838623046875,119.31393432617188 M470.74725341796875,119.56419372558594 L470.77886962890625,119.80091094970703 L470.826171875,120.32740783691406 L470.8692932128906,121.1966323852539 L470.85784912109375,122.35961151123047 L470.746337890625,123.71990966796875 L470.54840087890625,125.14402770996094 L470.295166015625,126.4742202758789 L470.033935546875,127.55236053466797 L469.8130187988281,128.25148010253906 L469.63470458984375,128.4842071533203 L469.501708984375,128.2334442138672 L469.4453125,127.52476501464844 L469.48651123046875,126.41820526123047 L469.6377258300781,125.01712036132812 L469.904541015625,123.44266510009766 L470.27325439453125,121.81304931640625 L470.770263671875,120.24759674072266 L471.4351806640625,118.84618377685547 L472.3062744140625,117.69091033935547 L473.3851318359375,116.84758758544922 L474.6425476074219,116.34880065917969 L476.006591796875,116.1910629272461 L477.416259765625,116.3355484008789 L478.80621337890625,116.72887420654297 L480.09027099609375,117.28816986083984 L481.19073486328125,117.93245697021484 L482.03680419921875,118.59034729003906 L482.5867004394531,119.2046127319336 L482.86944580078125,119.73008728027344 L482.9656982421875,120.14784240722656 L482.96075439453125,120.4200668334961 L482.9359130859375,120.55908966064453 M486.098876953125,118.27669525146484 L486.33642578125,118.01688385009766 L486.89404296875,117.67716217041016 L487.8650817871094,117.35601806640625 L489.23101806640625,117.1900405883789 L490.9052429199219,117.20608520507812 L492.70550537109375,117.40199279785156 L494.4140625,117.75535583496094 L495.82568359375,118.26392364501953 L496.7828369140625,118.89512634277344 L497.177001953125,119.63034057617188 L496.9559326171875,120.47383880615234 L496.10430908203125,121.41934204101562 L494.69873046875,122.47533416748047 L492.8897399902344,123.61897277832031 L490.91375732421875,124.80165100097656 L489.0289611816406,125.94725036621094 L487.46063232421875,126.99019622802734 L486.3620300292969,127.87487030029297 L485.84033203125,128.57977294921875 L485.9389343261719,129.08265686035156 L486.67572021484375,129.36351013183594 L488.0199279785156,129.3773956298828 L489.8826904296875,129.13809204101562 L492.1289978027344,128.65109252929688 L494.51739501953125,127.96939849853516 L496.78448486328125,127.17195129394531 L498.4896240234375,126.48454284667969 L499.474609375,126.02458953857422 M497.79119873046875,119.09478759765625 L497.99853515625,118.99327850341797 L498.46490478515625,118.86119842529297 L499.23052978515625,118.7335205078125 L500.2943115234375,118.67916870117188 L501.6004638671875,118.7215576171875 L503.07159423828125,118.88956451416016 L504.58502197265625,119.18477630615234 L505.98992919921875,119.5997314453125 L507.118896484375,120.09658813476562 L507.8880615234375,120.66109466552734 L508.230224609375,121.28617095947266 L508.1441345214844,121.98223114013672 L507.65216064453125,122.75287628173828 L506.79571533203125,123.58370971679688 L505.67706298828125,124.44317626953125 L504.43865966796875,125.29314422607422 L503.2511291503906,126.08234405517578 L502.28985595703125,126.76018524169922 L501.67230224609375,127.29141998291016 L501.43408203125,127.6409912109375 L501.59930419921875,127.78755950927734 L502.1287536621094,127.71238708496094 L502.986572265625,127.39856719970703 L504.12554931640625,126.86064910888672 L505.4463806152344,126.13301849365234 L506.80560302734375,125.25277709960938 L508.095703125,124.27633666992188 L509.203369140625,123.2777328491211 L510.0599365234375,122.34104919433594 L510.63873291015625,121.57157135009766 L510.96905517578125,121.02330017089844 L511.09051513671875,120.70556640625 L511.0671691894531,120.6038589477539 L510.94482421875,120.71434783935547 L510.7696533203125,121.04447174072266 L510.56298828125,121.6188735961914 L510.41473388671875,122.40685272216797 L510.3924865722656,123.3421859741211 L510.5531311035156,124.32999420166016 L510.9149169921875,125.2873306274414 L511.44879150390625,126.12889862060547 L512.0609741210938,126.80994415283203 L512.710205078125,127.23794555664062 L513.3461303710938,127.3515625 L513.961181640625,127.13783264160156 L514.45068359375,126.79093170166016 L514.764404296875,126.47602081298828 M518.7760009765625,107.04823303222656 L518.8089599609375,107.11344909667969 L518.8831176757812,107.39315795898438 L518.975830078125,108.01278686523438 L519.0355834960938,109.0273208618164 L519.0086669921875,110.3895492553711 L518.8792114257812,112.03221130371094 L518.6637573242188,113.891845703125 L518.4121704101562,115.9088134765625 L518.1637573242188,118.0187759399414 L517.944091796875,120.13056945800781 L517.7728271484375,122.13033294677734 L517.6611938476562,123.90473937988281 L517.5982055664062,125.35556030273438 L517.5968627929688,126.39952087402344 L517.6275634765625,127.01189422607422 L517.66357421875,127.27783966064453 M525.639404296875,118.6646957397461 L525.62353515625,118.36473846435547 L525.45703125,117.99120330810547 L524.9984130859375,117.6912841796875 L524.15087890625,117.66031646728516 L522.9190673828125,117.95284271240234 L521.4258422851562,118.53868103027344 L519.8750610351562,119.32870483398438 L518.5030517578125,120.25382995605469 L517.5159912109375,121.21304321289062 L517.087646484375,122.14061737060547 L517.3192138671875,123.00928497314453 L518.2366943359375,123.77645111083984 L519.7756958007812,124.40382385253906 L521.8174438476562,124.8644790649414 L524.1812744140625,125.1303939819336 L526.673095703125,125.21887969970703 L529.0931396484375,125.15908813476562 L531.24365234375,124.96746826171875 L532.9685668945312,124.63864135742188 L534.1981201171875,124.16834259033203 L534.9471435546875,123.54762268066406 L535.3159790039062,122.82029724121094 L535.418212890625,122.0364990234375 L535.353271484375,121.27491760253906 L535.2219848632812,120.58589935302734 L535.105224609375,120.014404296875 L535.037353515625,119.57621002197266 L535.035888671875,119.32194519042969 L535.0719604492188,119.2916488647461 L535.1019287109375,119.54790496826172 L535.1348876953125,120.11127471923828 L535.1866455078125,120.9671401977539 L535.251953125,122.04191589355469 L535.310791015625,123.24060821533203 L535.345703125,124.43023681640625 L535.3370361328125,125.47245025634766 L535.3145141601562,126.2591552734375 L535.3101806640625,126.7603759765625 L535.323974609375,127.01496887207031 L535.3357543945312,127.02193450927734 L535.341064453125,126.7789535522461 L535.3397827148438,126.26187896728516 L535.339111328125,125.68062591552734 L535.3486328125,125.21675872802734 M533.2017211914062,111.78778839111328 L533.2041625976562,111.4940185546875 L533.2392578125,111.0909194946289 L533.3067626953125,110.66400909423828 L533.4307861328125,110.3597640991211 L533.6286010742188,110.1973648071289 L533.905517578125,110.17118835449219 L534.1751098632812,110.20994567871094 L534.3818969726562,110.27522277832031 M562.8463134765625,116.53240966796875 L562.8626708984375,116.46578216552734 L562.8631591796875,116.46257019042969 L562.8214111328125,116.64336395263672 L562.7263793945312,117.15430450439453 L562.59326171875,118.06656646728516 L562.4486083984375,119.38127136230469 L562.3096313476562,121.0514144897461 L562.17333984375,122.96857452392578 L562.0204467773438,124.97754669189453 L561.8621215820312,126.92904663085938 L561.694091796875,128.68255615234375 L561.5560302734375,130.06687927246094 L561.501708984375,130.96890258789062 L561.562255859375,131.33921813964844 L561.6785888671875,131.34109497070312 L561.8026733398438,131.1884002685547 M562.9766845703125,115.06123352050781 L562.9453125,114.34980010986328 L562.9443359375,113.31214904785156 L563.0339965820312,112.15737915039062 L563.2587890625,111.20126342773438 L563.6278076171875,110.47936248779297 L564.1041870117188,110.01850128173828 L564.6598510742188,109.83128356933594 L565.2530517578125,109.990966796875 L565.8703002929688,110.53189086914062 L566.5256958007812,111.43858337402344 L567.2415771484375,112.61712646484375 L568.0369262695312,113.92970275878906 L568.94921875,115.21320343017578 L569.9682006835938,116.2977066040039 L571.0955810546875,117.03862762451172 L572.3606567382812,117.34791564941406 L573.7613525390625,117.16935729980469 L575.3024291992188,116.50736236572266 L576.9659423828125,115.43052673339844 L578.6785278320312,114.0547866821289 L580.37109375,112.53611755371094 L581.9896850585938,111.04279327392578 L583.43896484375,109.71434020996094 L584.6370849609375,108.64647674560547 L585.5052490234375,107.90459442138672 L586.0056762695312,107.54515838623047 L586.1586303710938,107.62831115722656 L586.0406494140625,108.2211685180664 L585.682861328125,109.3647689819336 L585.125244140625,111.03244018554688 L584.3988037109375,113.13815307617188 L583.5902099609375,115.55121612548828 L582.7978515625,118.12261199951172 L582.137451171875,120.69988250732422 L581.6520385742188,123.14112854003906 L581.412109375,125.32244110107422 L581.4346923828125,127.14076232910156 L581.7171630859375,128.52615356445312 L582.0810546875,129.4092254638672 L582.3856811523438,129.84556579589844 M596.907958984375,123.96047973632812 L596.9102783203125,123.50421142578125 L596.7685546875,122.77932739257812 L596.3734741210938,121.89573669433594 L595.6492309570312,121.06694030761719 L594.626220703125,120.38095092773438 L593.3743896484375,119.9185562133789 L591.99755859375,119.74974822998047 L590.587158203125,119.94931030273438 L589.2340087890625,120.55947875976562 L588.0360717773438,121.56624603271484 L587.0849609375,122.87279510498047 L586.487548828125,124.3490982055664 L586.3336181640625,125.82785034179688 L586.6783447265625,127.11772918701172 L587.5140380859375,128.05838012695312 L588.7978515625,128.53817749023438 L590.4154052734375,128.49005126953125 L592.2379760742188,127.95157623291016 L594.094482421875,127.00527954101562 L595.839111328125,125.77252197265625 L597.3297729492188,124.4081802368164 L598.4696655273438,123.08623504638672 L599.2177734375,121.95052337646484 L599.6138916015625,121.11809539794922 L599.7295532226562,120.64328002929688 L599.69189453125,120.54016876220703 L599.5958251953125,120.80762481689453 L599.4842529296875,121.44535064697266 L599.3978881835938,122.41150665283203 L599.39453125,123.62307739257812 L599.5120239257812,124.96124267578125 L599.838134765625,126.26123046875 L600.4072265625,127.36516571044922 L601.1652221679688,128.15635681152344 L601.86767578125,128.6006317138672 L602.356689453125,128.7692108154297 M607.53271484375,120.98568725585938 L607.4644165039062,121.03759765625 L607.3609619140625,121.28268432617188 L607.2208251953125,121.83432006835938 L607.06396484375,122.73898315429688 L606.9141845703125,123.9396743774414 L606.831787109375,125.28812408447266 L606.9080200195312,126.62217712402344 L607.2391357421875,127.78433990478516 L607.8779296875,128.62600708007812 L608.828125,129.03799438476562 L610.05859375,128.96702575683594 L611.487060546875,128.40476989746094 L612.9978637695312,127.41272735595703 L614.465087890625,126.10004425048828 L615.78271484375,124.60851287841797 L616.86279296875,123.1201171875 L617.6702880859375,121.81645202636719 L618.199951171875,120.8051986694336 L618.4830322265625,120.1507568359375 L618.557861328125,119.85917663574219 L618.4908447265625,119.92984008789062 L618.3323364257812,120.38485717773438 L618.137939453125,121.23932647705078 L617.9691162109375,122.41262817382812 L617.8990478515625,123.79830932617188 L617.9625244140625,125.22396087646484 L618.1873779296875,126.55254364013672 L618.6046142578125,127.63487243652344 L619.20458984375,128.3630828857422 L619.9439086914062,128.66810607910156 L620.6123657226562,128.6812744140625 L621.0646362304688,128.5564422607422 M625.6288452148438,109.56939697265625 L625.7852172851562,109.86370849609375 L626.0101928710938,110.45149993896484 L626.2554931640625,111.36658477783203 L626.4330444335938,112.56710815429688 L626.5252075195312,114.04589080810547 L626.524658203125,115.75630187988281 L626.46142578125,117.63604736328125 L626.375732421875,119.60298156738281 L626.3352661132812,121.51380157470703 L626.3854370117188,123.22096252441406 L626.4896240234375,124.46572875976562 L626.5950927734375,125.1695556640625 M638.93212890625,123.06534576416016 L639.093017578125,122.68218994140625 L639.23291015625,122.05828857421875 L639.1958618164062,121.2896728515625 L638.815185546875,120.55905151367188 L638.0609130859375,119.95520782470703 L636.94384765625,119.55659484863281 L635.5508422851562,119.41998291015625 L634.015625,119.59778594970703 L632.48828125,120.12855529785156 L631.1370849609375,120.97310638427734 L630.12744140625,122.04772186279297 L629.5621337890625,123.22115325927734 L629.516357421875,124.35940551757812 L630.0301513671875,125.30615234375 L631.0884399414062,125.94686126708984 L632.609619140625,126.1805191040039 L634.459716796875,125.97866821289062 L636.4287109375,125.36368560791016 L638.306396484375,124.44461059570312 L639.899658203125,123.33267974853516 L641.0826416015625,122.18275451660156 L641.821533203125,121.14445495605469 L642.1863403320312,120.3316879272461 L642.2705078125,119.8100814819336 L642.2079467773438,119.63352966308594 L642.0888671875,119.79643249511719 L641.9630126953125,120.30288696289062 L641.89013671875,121.13462829589844 L641.939697265625,122.19957733154297 L642.1637573242188,123.36104583740234 L642.61962890625,124.48221588134766 L643.3878784179688,125.38788604736328 L644.4453735351562,125.96761322021484 L645.7183837890625,126.18575286865234 L646.8448486328125,126.15955352783203 L647.595458984375,126.03600311279297 M650.1864013671875,119.23587036132812 L650.2544555664062,119.09111022949219 L650.352783203125,119.02163696289062 L650.438720703125,119.17411041259766 L650.4637451171875,119.7038345336914 L650.3825073242188,120.57917785644531 L650.2149047851562,121.68387603759766 L650.0072021484375,122.85749053955078 L649.804931640625,123.95542907714844 L649.6453857421875,124.85780334472656 L649.5576171875,125.4999008178711 L649.5289306640625,125.80430603027344 L649.5992431640625,125.73046112060547 L649.8107299804688,125.26544952392578 L650.189208984375,124.4315414428711 L650.7412109375,123.33944702148438 L651.4522705078125,122.10891723632812 L652.2942504882812,120.85287475585938 L653.2637939453125,119.67930603027344 L654.3575439453125,118.6734619140625 L655.546142578125,117.89835357666016 L656.7786254882812,117.42884826660156 L657.98876953125,117.28953552246094 L659.093994140625,117.50054931640625 L660.0196533203125,118.04765319824219 L660.7169799804688,118.90985107421875 L661.1552734375,120.02317810058594 L661.3533935546875,121.3059310913086 L661.3695068359375,122.6085205078125 L661.2723388671875,123.79481506347656 L661.153564453125,124.65138244628906 L661.070556640625,125.13078308105469 M672.9178466796875,122.19172668457031 L673.0125122070312,121.72924041748047 L673.0472412109375,121.0379867553711 L672.8740234375,120.25440979003906 L672.3622436523438,119.60717010498047 L671.4838256835938,119.17606353759766 L670.3067016601562,119.01150512695312 L668.93310546875,119.1253890991211 L667.501953125,119.54861450195312 L666.1506958007812,120.27308654785156 L665.0350341796875,121.24757385253906 L664.267578125,122.38294219970703 L663.9458618164062,123.56098937988281 L664.104736328125,124.63406372070312 L664.7542724609375,125.47421264648438 L665.871337890625,125.97985076904297 L667.378662109375,126.08750915527344 L669.1138916015625,125.77848052978516 L670.8934326171875,125.09004974365234 L672.5281372070312,124.11052703857422 L673.8695678710938,122.98274230957031 L674.8543701171875,121.84640502929688 L675.4871826171875,120.83570861816406 L675.81884765625,120.03034973144531 L675.9489135742188,119.4747314453125 L675.96728515625,119.23129272460938 L675.9185791015625,119.35326385498047 L675.8292236328125,119.8636703491211 L675.740234375,120.82227325439453 L675.69482421875,122.15324401855469 L675.7452392578125,123.69696044921875 L675.8538208007812,125.02651977539062 L675.9629516601562,125.88845825195312 " fill="none" stroke="black" stroke-linecap="round" stroke-width="1" /><path d="M0,0 M369.6603698730469,165.92333984375 L369.6691589355469,165.80844116210938 L369.6923522949219,165.7544403076172 L369.71917724609375,165.9097900390625 L369.7131652832031,166.4458465576172 L369.61865234375,167.42355346679688 L369.4111328125,168.84852600097656 L369.0919189453125,170.6832275390625 L368.70794677734375,172.8771209716797 L368.2818603515625,175.34181213378906 L367.83026123046875,177.97283935546875 L367.3443603515625,180.62527465820312 L366.846435546875,183.13250732421875 L366.3763122558594,185.3238067626953 L365.9984130859375,187.07025146484375 L365.7179870605469,188.2891845703125 L365.5650939941406,188.86834716796875 L365.52703857421875,188.7830810546875 L365.60284423828125,188.0936279296875 L365.72540283203125,187.22251892089844 L365.84130859375,186.52023315429688 M366.7369384765625,166.64898681640625 L366.9104919433594,166.50131225585938 L367.42694091796875,166.29222106933594 L368.4447937011719,166.05543518066406 L370.01947021484375,165.85177612304688 L372.0943908691406,165.6816864013672 L374.5428466796875,165.54159545898438 L377.2081604003906,165.43038940429688 L379.91815185546875,165.3726806640625 L382.4945068359375,165.37338256835938 L384.7375793457031,165.43724060058594 L386.5213623046875,165.5519561767578 L387.685302734375,165.7152862548828 L388.1668701171875,165.9246368408203 L388.0079040527344,166.19625854492188 L387.5531005859375,166.4525146484375 L387.0948181152344,166.6405792236328 M369.87921142578125,177.06414794921875 L370.2121276855469,177.08560180664062 L370.8883056640625,177.0742950439453 L371.95794677734375,176.9966278076172 L373.3809509277344,176.84034729003906 L375.1405029296875,176.6436767578125 L377.1582946777344,176.4574432373047 L379.3462829589844,176.3317108154297 L381.5815734863281,176.3227081298828 L383.69390869140625,176.4651641845703 L385.57891845703125,176.86439514160156 L386.95928955078125,177.34283447265625 L387.7559509277344,177.7499542236328 M390.88580322265625,183.05331420898438 L390.9365234375,183.04156494140625 L390.9980163574219,183.07269287109375 L391.0361633300781,183.22567749023438 L391.01470947265625,183.60670471191406 L390.9183349609375,184.30397033691406 L390.768310546875,185.33624267578125 L390.5838928222656,186.63809204101562 L390.3870849609375,188.07940673828125 L390.19683837890625,189.48114013671875 L390.0291748046875,190.69467163085938 L389.9055480957031,191.59446716308594 L389.8839416503906,191.97653198242188 L390.01025390625,191.7291717529297 L390.2921447753906,190.85601806640625 L390.6085205078125,189.80604553222656 L390.8518981933594,188.97332763671875 M393.0364685058594,170.55279541015625 L393.001220703125,170.4055938720703 L392.990478515625,170.25161743164062 L393.0264587402344,170.1454620361328 L393.1589660644531,170.18145751953125 L393.3628234863281,170.34178161621094 L393.6475830078125,170.62985229492188 L393.9219665527344,170.92724609375 L394.1224365234375,171.1606903076172 M405.69012451171875,186.1509246826172 L405.728271484375,185.71754455566406 L405.6849365234375,184.9967498779297 L405.4598388671875,184.08065795898438 L404.9552917480469,183.16485595703125 L404.154541015625,182.35389709472656 L403.0900573730469,181.7425079345703 L401.83599853515625,181.39381408691406 L400.482177734375,181.3819580078125 L399.13092041015625,181.7586212158203 L397.88031005859375,182.5349884033203 L396.8289794921875,183.68231201171875 L396.069580078125,185.12156677246094 L395.6971435546875,186.71839904785156 L395.788818359375,188.3029327392578 L396.3725891113281,189.67581176757812 L397.4300231933594,190.6637725830078 L398.8924560546875,191.14088439941406 L400.6313781738281,191.06631469726562 L402.501953125,190.48214721679688 L404.319580078125,189.4959716796875 L405.878662109375,188.2373504638672 L407.02850341796875,186.8630828857422 L407.7078857421875,185.5247039794922 L407.9555969238281,184.36317443847656 L407.91400146484375,183.49124145507812 L407.7278747558594,182.98458862304688 L407.530029296875,182.8974151611328 L407.4187927246094,183.26966857910156 L407.4412841796875,184.12257385253906 L407.6248779296875,185.43618774414062 L407.96466064453125,187.13330078125 L408.4456787109375,189.10784912109375 L409.0557861328125,191.2593994140625 L409.7578430175781,193.48712158203125 L410.4833984375,195.70278930664062 L411.14166259765625,197.81546020507812 L411.6129150390625,199.72190856933594 L411.807373046875,201.34262084960938 L411.66259765625,202.6314239501953 L411.1432800292969,203.5644073486328 L410.2458190917969,204.14527893066406 L408.9852294921875,204.38882446289062 L407.442138671875,204.32855224609375 L405.7248840332031,204.00491333007812 L403.9607238769531,203.46408081054688 L402.2698059082031,202.74710083007812 L400.7451171875,201.8994140625 L399.5057373046875,200.89541625976562 L398.6942138671875,199.76747131347656 L398.3727111816406,198.56272888183594 L398.3935852050781,197.55581665039062 L398.56024169921875,196.90338134765625 M423.4494934082031,183.91375732421875 L423.41015625,183.4332275390625 L423.2289733886719,182.6641082763672 L422.7990417480469,181.7322540283203 L422.0202941894531,180.86827087402344 L420.84771728515625,180.17816162109375 L419.31463623046875,179.74383544921875 L417.5165710449219,179.6016845703125 L415.61083984375,179.77667236328125 L413.8089294433594,180.2787628173828 L412.2994384765625,181.06124877929688 L411.2337341308594,182.05926513671875 L410.73114013671875,183.18472290039062 L410.8507080078125,184.32969665527344 L411.60321044921875,185.38125610351562 L412.96978759765625,186.24969482421875 L414.8399353027344,186.84596252441406 L417.0274353027344,187.11563110351562 L419.3113098144531,187.03988647460938 L421.452880859375,186.63299560546875 L423.2435607910156,185.9352569580078 L424.55914306640625,185.0025634765625 L425.34136962890625,183.898681640625 L425.6116943359375,182.70806884765625 L425.41058349609375,181.5364990234375 L424.8333740234375,180.51272583007812 L424.0275573730469,179.7471466064453 L423.2885437011719,179.28919982910156 L422.7923583984375,179.09156799316406 M455.4135437011719,172.61610412597656 L455.38983154296875,172.51402282714844 L455.3118591308594,172.43911743164062 L455.1311950683594,172.5069580078125 L454.7910461425781,172.87071228027344 L454.2393493652344,173.6318817138672 L453.462890625,174.8207244873047 L452.44464111328125,176.41171264648438 L451.1778564453125,178.32601928710938 L449.6836242675781,180.4317626953125 L448.01544189453125,182.59124755859375 L446.2728271484375,184.66799926757812 L444.6133728027344,186.50045776367188 L443.1859436035156,187.95265197753906 L442.1029357910156,188.95738220214844 L441.4190368652344,189.52117919921875 L441.13232421875,189.69984436035156 L441.20001220703125,189.52426147460938 L441.6078796386719,188.9545135498047 L442.373291015625,187.9267578125 L443.4801940917969,186.45399475097656 L444.8774719238281,184.6229705810547 L446.46478271484375,182.5598602294922 L448.1143493652344,180.3643035888672 L449.7381896972656,178.0875244140625 L451.2924499511719,175.74929809570312 L452.7233581542969,173.3937225341797 L454.0047912597656,171.1072540283203 L455.0792236328125,169.02487182617188 L455.8888244628906,167.28770446777344 L456.4159240722656,166.003173828125 L456.6701354980469,165.23153686523438 L456.70166015625,165.0 L456.62261962890625,165.34207153320312 L456.5221252441406,166.3187713623047 L456.4573974609375,167.95091247558594 L456.465576171875,170.16786193847656 L456.5506896972656,172.8243865966797 L456.74090576171875,175.71780395507812 L457.08599853515625,178.6318817138672 L457.60821533203125,181.37051391601562 L458.2593994140625,183.74966430664062 L458.9592590332031,185.62548828125 L459.5718688964844,186.918701171875 L459.9295654296875,187.56053161621094 L459.93170166015625,187.58433532714844 L459.55767822265625,187.1055908203125 L459.04388427734375,186.4781951904297 L458.6187744140625,185.978271484375 M444.1720275878906,179.89801025390625 L444.26947021484375,179.8415985107422 L444.68359375,179.7567901611328 L445.5963134765625,179.65447998046875 L447.0955505371094,179.55380249023438 L449.09307861328125,179.4611053466797 L451.4012756347656,179.35888671875 L453.8094482421875,179.24209594726562 L456.1894836425781,179.09376525878906 L458.40948486328125,178.89918518066406 L460.37841796875,178.65283203125 L461.81988525390625,178.42648315429688 L462.65045166015625,178.26348876953125 M467.5144348144531,178.6578369140625 L467.4872131347656,178.9307098388672 L467.4111328125,179.47586059570312 L467.25164794921875,180.316650390625 L466.9923095703125,181.39678955078125 L466.637451171875,182.66897583007812 L466.2083740234375,184.05841064453125 L465.7450866699219,185.454833984375 L465.3193359375,186.73721313476562 L464.97125244140625,187.77212524414062 L464.74285888671875,188.44369506835938 L464.64691162109375,188.65867614746094 L464.6895751953125,188.37063598632812 L464.86395263671875,187.564697265625 L465.171142578125,186.31361389160156 L465.58685302734375,184.74917602539062 L466.1048583984375,183.0235595703125 L466.72607421875,181.2798614501953 L467.469970703125,179.63514709472656 L468.34088134765625,178.16943359375 L469.3585510253906,176.96328735351562 L470.53057861328125,176.08692932128906 L471.86004638671875,175.57696533203125 L473.34429931640625,175.442626953125 L474.92791748046875,175.63783264160156 L476.5169677734375,176.08616638183594 L478.03131103515625,176.6863250732422 L479.40826416015625,177.34613037109375 L480.615234375,177.9802703857422 L481.6371154785156,178.5260009765625 L482.44720458984375,178.93896484375 L482.9838562011719,179.1965789794922 L483.2622375488281,179.31527709960938 M487.65655517578125,177.6239776611328 L487.891845703125,177.40435791015625 L488.43505859375,177.0867156982422 L489.34869384765625,176.7402801513672 L490.61895751953125,176.4912872314453 L492.1571350097656,176.39048767089844 L493.81756591796875,176.48199462890625 L495.423828125,176.77818298339844 L496.7882080078125,177.2661895751953 L497.724365234375,177.90284729003906 L498.11981201171875,178.65737915039062 L497.88128662109375,179.51719665527344 L496.9661865234375,180.48460388183594 L495.39605712890625,181.57757568359375 L493.2751770019531,182.7911376953125 L490.79339599609375,184.09353637695312 L488.24029541015625,185.40798950195312 L485.945556640625,186.62606811523438 L484.1827697753906,187.6508331298828 L483.1556091308594,188.42510986328125 L482.93792724609375,188.92393493652344 L483.51763916015625,189.1441192626953 L484.8529052734375,189.0704345703125 L486.8724060058594,188.71429443359375 L489.46435546875,188.11195373535156 L492.39031982421875,187.3578338623047 L495.3059997558594,186.5567169189453 L497.570068359375,185.91310119628906 L498.91650390625,185.5137176513672 M495.2929992675781,179.59054565429688 L495.33721923828125,179.56915283203125 L495.45086669921875,179.49407958984375 L495.71868896484375,179.34368896484375 L496.26068115234375,179.12033081054688 L497.171630859375,178.8567657470703 L498.51312255859375,178.63047790527344 L500.2090148925781,178.4751739501953 L502.0779724121094,178.40231323242188 L503.913818359375,178.40533447265625 L505.56121826171875,178.4723358154297 L506.89727783203125,178.61524963378906 L507.87127685546875,178.87213134765625 L508.43017578125,179.26258850097656 L508.5320129394531,179.8087615966797 L508.1307373046875,180.5233917236328 L507.2451171875,181.4115753173828 L505.92901611328125,182.4725799560547 L504.30364990234375,183.69017028808594 L502.55633544921875,185.02186584472656 L500.92608642578125,186.40573120117188 L499.62286376953125,187.75762939453125 L498.80816650390625,188.98484802246094 L498.55517578125,189.9927520751953 L498.866943359375,190.6822052001953 L499.7069091796875,190.96682739257812 L501.00689697265625,190.7862548828125 L502.644775390625,190.12759399414062 L504.45947265625,189.0363311767578 L506.27642822265625,187.60125732421875 L507.9508361816406,185.92401123046875 L509.3804016113281,184.1144561767578 L510.506591796875,182.29367065429688 L511.3023681640625,180.60946655273438 L511.7936096191406,179.21185302734375 L512.03564453125,178.18092346191406 L512.1051025390625,177.54623413085938 L512.0619506835938,177.29983520507812 L511.9559631347656,177.44430541992188 L511.79034423828125,178.00946044921875 L511.5930480957031,179.02593994140625 L511.3952941894531,180.4153594970703 L511.2270202636719,182.06333923339844 L511.134765625,183.81509399414062 L511.1651611328125,185.5098419189453 L511.31683349609375,186.99899291992188 L511.56805419921875,188.1766815185547 L511.84832763671875,188.97262573242188 L512.0978393554688,189.3529510498047 L512.303466796875,189.34619140625 L512.4833984375,189.02102661132812 L512.6268310546875,188.60333251953125 L512.7293701171875,188.2628631591797 M519.8912353515625,167.9027099609375 L520.0022583007812,167.89024353027344 L520.1800537109375,168.02236938476562 L520.393798828125,168.43661499023438 L520.5625,169.24215698242188 L520.6362915039062,170.45648193359375 L520.5681762695312,172.04376220703125 L520.3788452148438,173.94351196289062 L520.09619140625,176.07937622070312 L519.7758178710938,178.34478759765625 L519.4658203125,180.60792541503906 L519.2142944335938,182.7269287109375 L519.0279541015625,184.5594482421875 L518.919677734375,185.9886932373047 L518.8578491210938,186.9742889404297 L518.820068359375,187.5308837890625 L518.8096923828125,187.70790100097656 L518.8851318359375,187.56163024902344 L519.1270751953125,187.10931396484375 L519.613525390625,186.3434295654297 L520.36669921875,185.30833435058594 L521.3760986328125,184.06895446777344 L522.58447265625,182.70115661621094 L523.9429321289062,181.30259704589844 L525.396484375,179.95285034179688 L526.8428955078125,178.72586059570312 L528.1683349609375,177.69656372070312 L529.2725830078125,176.9015350341797 L529.99853515625,176.35372924804688 L530.2741088867188,176.05189514160156 L530.1114501953125,175.9689178466797 L529.740234375,176.011962890625 L529.3860473632812,176.09474182128906 M522.3054809570312,181.21266174316406 L522.4295654296875,181.4159393310547 L522.6530151367188,181.82093811035156 L522.98974609375,182.44549560546875 L523.4336547851562,183.2462158203125 L524.0175170898438,184.18780517578125 L524.754150390625,185.220458984375 L525.6397705078125,186.2796630859375 L526.69580078125,187.25538635253906 L527.9150390625,188.03594970703125 L529.2528076171875,188.54212951660156 L530.3961181640625,188.7864227294922 L531.153076171875,188.85272216796875 M537.773681640625,178.89146423339844 L537.8072509765625,178.8683624267578 L537.813232421875,178.96505737304688 L537.7481689453125,179.3177490234375 L537.5682373046875,180.03988647460938 L537.279296875,181.13734436035156 L536.9232177734375,182.53244018554688 L536.5490112304688,184.1110382080078 L536.2245483398438,185.69512939453125 L536.0122680664062,187.10252380371094 L535.9398193359375,188.1781463623047 L535.9613647460938,188.83242797851562 L536.0233154296875,189.11822509765625 M539.6095581054688,170.27960205078125 L539.6534423828125,170.03004455566406 L539.7542724609375,169.73870849609375 L539.8732299804688,169.4984130859375 L539.9716796875,169.40194702148438 M555.4290161132812,181.8016357421875 L555.6771850585938,181.42454528808594 L556.1005249023438,180.73828125 L556.663330078125,179.77333068847656 L557.2826538085938,178.6327667236328 L557.9395751953125,177.36154174804688 L558.6268920898438,176.0045166015625 L559.3463134765625,174.5957489013672 L560.0676879882812,173.1923065185547 L560.7308349609375,171.89678955078125 L561.2752685546875,170.7827606201172 L561.6647338867188,169.93182373046875 L561.8843994140625,169.39353942871094 L561.947265625,169.2117462158203 L561.8682861328125,169.4103240966797 L561.6387939453125,170.04635620117188 L561.26123046875,171.1528778076172 L560.7576293945312,172.73110961914062 L560.1808471679688,174.72305297851562 L559.6001586914062,177.03369140625 L559.1009521484375,179.5251007080078 L558.7508544921875,182.05670166015625 L558.617431640625,184.48513793945312 L558.7430419921875,186.66346740722656 L559.156982421875,188.4723358154297 L559.8630981445312,189.83404541015625 L560.8489990234375,190.6953582763672 L562.0880737304688,191.02439880371094 L563.5518188476562,190.80990600585938 L565.185791015625,190.05520629882812 L566.9095458984375,188.80943298339844 L568.642822265625,187.14991760253906 L570.2828979492188,185.16030883789062 L571.77783203125,182.92941284179688 L573.11083984375,180.545654296875 L574.272216796875,178.09669494628906 L575.2672119140625,175.69432067871094 L576.1146850585938,173.44894409179688 L576.7889404296875,171.4896240234375 L577.2830810546875,169.91712951660156 L577.6015625,168.78973388671875 L577.7508544921875,168.1132049560547 L577.7727661132812,167.880126953125 L577.71826171875,168.07565307617188 L577.5982055664062,168.73704528808594 L577.399658203125,169.87962341308594 L577.1365966796875,171.46966552734375 L576.8206787109375,173.4049072265625 L576.5076904296875,175.55569458007812 L576.2628173828125,177.7846221923828 L576.1187744140625,179.99072265625 L576.0697631835938,182.09642028808594 L576.1490478515625,184.0226593017578 L576.3465576171875,185.6636505126953 L576.6668701171875,186.9342803955078 L576.9968872070312,187.74526977539062 L577.2445068359375,188.13804626464844 M590.1285400390625,181.63873291015625 L590.1763916015625,181.28994750976562 L590.2080078125,180.69996643066406 L590.1575927734375,179.93370056152344 L589.9468994140625,179.15220642089844 L589.53125,178.43911743164062 L588.873291015625,177.8604278564453 L587.968994140625,177.45742797851562 L586.8462524414062,177.28285217285156 L585.5433349609375,177.3797149658203 L584.14892578125,177.787841796875 L582.7742309570312,178.50711059570312 L581.5173950195312,179.50372314453125 L580.4929809570312,180.7147674560547 L579.78564453125,182.04930114746094 L579.4371948242188,183.39706420898438 L579.494384765625,184.6416015625 L579.9627075195312,185.6629180908203 L580.8015747070312,186.3650360107422 L581.964111328125,186.6822509765625 L583.3607177734375,186.58428955078125 L584.884521484375,186.08871459960938 L586.438720703125,185.24671936035156 L587.922607421875,184.15753173828125 L589.228515625,182.93292236328125 L590.2855834960938,181.68812561035156 L591.0484619140625,180.53684997558594 L591.51806640625,179.58311462402344 L591.7449951171875,178.88914489746094 L591.8173828125,178.50424194335938 L591.7901000976562,178.43826293945312 L591.713134765625,178.7081756591797 L591.59326171875,179.32183837890625 L591.4361572265625,180.2589569091797 L591.2806396484375,181.44027709960938 L591.184814453125,182.75344848632812 L591.2392578125,184.0714569091797 L591.5101928710938,185.276123046875 L591.983154296875,186.26922607421875 L592.468505859375,186.9408721923828 L592.828369140625,187.29092407226562 M598.4776000976562,179.09567260742188 L598.4361572265625,179.10919189453125 L598.32373046875,179.26683044433594 L598.1181640625,179.67861938476562 L597.8308715820312,180.4193878173828 L597.5091552734375,181.45530700683594 L597.2540893554688,182.68881225585938 L597.159912109375,183.9952392578125 L597.3017578125,185.23199462890625 L597.74072265625,186.27191162109375 L598.4876708984375,187.01084899902344 L599.53515625,187.3619842529297 L600.8677978515625,187.285888671875 L602.40869140625,186.7971649169922 L604.0223388671875,185.93052673339844 L605.5753784179688,184.78268432617188 L606.9077758789062,183.476318359375 L607.9382934570312,182.16261291503906 L608.6434326171875,181.00180053710938 L609.0615234375,180.11729431152344 L609.2439575195312,179.5602264404297 L609.260498046875,179.3544464111328 L609.1470947265625,179.49331665039062 L608.9443969726562,179.98223876953125 L608.6832275390625,180.81741333007812 L608.4239501953125,181.93128967285156 L608.2431640625,183.1984100341797 L608.20947265625,184.4787139892578 L608.4234619140625,185.61996459960938 L608.9122314453125,186.51148986816406 L609.641357421875,187.09922790527344 L610.3486328125,187.3994140625 L610.8541259765625,187.4949493408203 M618.35107421875,168.4060516357422 L618.3834228515625,168.4192352294922 L618.41015625,168.58070373535156 L618.3837280273438,169.01246643066406 L618.25146484375,169.810546875 L618.0110473632812,170.99069213867188 L617.6763916015625,172.52041625976562 L617.2816772460938,174.34329223632812 L616.875732421875,176.3837890625 L616.49072265625,178.5438690185547 L616.1600341796875,180.7099151611328 L615.92041015625,182.74908447265625 L615.84130859375,184.52589416503906 L615.970947265625,185.93588256835938 L616.3240966796875,186.9226531982422 L616.7337646484375,187.48614501953125 L617.0613403320312,187.72738647460938 M630.9674682617188,181.4642333984375 L630.9746704101562,181.13211059570312 L630.871337890625,180.6129913330078 L630.576171875,180.01510620117188 L630.015869140625,179.5088348388672 L629.2066650390625,179.18313598632812 L628.17041015625,179.08538818359375 L626.957763671875,179.23074340820312 L625.6412963867188,179.6380615234375 L624.343505859375,180.32337951660156 L623.1763916015625,181.25625610351562 L622.282470703125,182.39080810546875 L621.743408203125,183.62091064453125 L621.623046875,184.8173370361328 L621.9417724609375,185.85195922851562 L622.699462890625,186.6162567138672 L623.8231811523438,187.02296447753906 L625.2337646484375,187.0204315185547 L626.8016357421875,186.60606384277344 L628.3897705078125,185.82322692871094 L629.857177734375,184.77203369140625 L631.112060546875,183.5771942138672 L632.0665893554688,182.37442016601562 L632.710693359375,181.29147338867188 L633.0750732421875,180.4348907470703 L633.2108154296875,179.86936950683594 L633.2056884765625,179.63473510742188 L633.1402587890625,179.73046875 L633.0499267578125,180.15647888183594 L632.9603271484375,180.89598083496094 L632.9004516601562,181.89779663085938 L632.884521484375,183.07217407226562 L632.9969482421875,184.2861328125 L633.2847900390625,185.37655639648438 L633.7513427734375,186.22601318359375 L634.222412109375,186.7550048828125 L634.572509765625,186.9992218017578 M639.5281372070312,179.2466583251953 L639.5769653320312,179.21542358398438 L639.6357421875,179.2984161376953 L639.6702880859375,179.60528564453125 L639.6326904296875,180.22149658203125 L639.5067138671875,181.11962890625 L639.32275390625,182.22769165039062 L639.1309814453125,183.42999267578125 L638.9717407226562,184.6070098876953 L638.861328125,185.63986206054688 L638.7817993164062,186.4372100830078 L638.7089233398438,186.92178344726562 L638.6378173828125,187.052734375 L638.6033935546875,186.80955505371094 L638.654296875,186.1996612548828 L638.8341674804688,185.27732849121094 L639.154296875,184.13272094726562 L639.6051025390625,182.85670471191406 L640.1470336914062,181.54266357421875 L640.7578125,180.25704956054688 L641.441162109375,179.06887817382812 L642.2212524414062,178.05075073242188 L643.1145629882812,177.27230834960938 L644.1143188476562,176.78509521484375 L645.1650390625,176.62490844726562 L646.1803588867188,176.78121948242188 L647.101318359375,177.2414093017578 L647.8896484375,177.9795379638672 L648.5108642578125,178.9676055908203 L648.941162109375,180.16372680664062 L649.16357421875,181.50161743164062 L649.18798828125,182.87237548828125 L649.13037109375,184.16165161132812 L649.1177978515625,185.255615234375 L649.234375,186.09046936035156 L649.4260864257812,186.61570739746094 L649.6046142578125,186.8723602294922 M661.2715454101562,180.32806396484375 L661.289794921875,180.00389099121094 L661.2716674804688,179.50318908691406 L661.1582641601562,178.91908264160156 L660.88623046875,178.40994262695312 L660.4088745117188,178.0233154296875 L659.7111206054688,177.8017578125 L658.7848510742188,177.76571655273438 L657.6734619140625,177.94802856445312 L656.444091796875,178.3765869140625 L655.20703125,179.05921936035156 L654.06640625,179.96249389648438 L653.1611328125,181.03111267089844 L652.5726318359375,182.17184448242188 L652.379150390625,183.27369689941406 L652.607177734375,184.23019409179688 L653.2510986328125,184.93894958496094 L654.2477416992188,185.33688354492188 L655.5280151367188,185.38246154785156 L656.950927734375,185.08660888671875 L658.4052124023438,184.49107360839844 L659.788818359375,183.68133544921875 L661.02099609375,182.72193908691406 L662.0394287109375,181.7110595703125 L662.8274536132812,180.71632385253906 L663.36083984375,179.83013916015625 L663.6629638671875,179.107666015625 L663.79345703125,178.6187286376953 L663.8021240234375,178.38206481933594 L663.7180786132812,178.4289093017578 L663.5797729492188,178.77542114257812 L663.3980102539062,179.43438720703125 L663.2031860351562,180.36016845703125 L663.0626220703125,181.4967498779297 L663.05419921875,182.7403564453125 L663.2314453125,184.0054168701172 L663.66455078125,185.2349090576172 L664.3333740234375,186.36135864257812 L665.1686401367188,187.32577514648438 L665.913330078125,188.0109100341797 L666.4140625,188.387939453125 " fill="none" stroke="black" stroke-linecap="round" stroke-width="1" /><path d="M0,0 M371.4230651855469,228.96414184570312 L371.3989562988281,228.8619384765625 L371.38262939453125,228.83993530273438 L371.3951721191406,229.0589599609375 L371.4339599609375,229.69407653808594 L371.43310546875,230.8037567138672 L371.3333435058594,232.37086486816406 L371.0767517089844,234.33206176757812 L370.6553649902344,236.62713623046875 L370.1216125488281,239.17579650878906 L369.54217529296875,241.89089965820312 L368.97662353515625,244.63616943359375 L368.484130859375,247.26832580566406 L368.0993957519531,249.64279174804688 L367.8045349121094,251.63180541992188 L367.5823974609375,253.15074157714844 L367.419677734375,254.0446319580078 L367.3293151855469,254.21212768554688 L367.3377990722656,253.6796112060547 L367.4140625,252.8772430419922 L367.5002136230469,252.18026733398438 M366.04852294921875,228.1966094970703 L366.0538330078125,227.6573944091797 L366.294677734375,226.94822692871094 L366.959716796875,226.24989318847656 L368.19970703125,225.7810821533203 L370.02410888671875,225.49758911132812 L372.3856201171875,225.33335876464844 L375.1690673828125,225.20948791503906 L378.30841064453125,225.12831115722656 L381.6816711425781,225.07464599609375 L385.1288146972656,225.03121948242188 L388.435791015625,225.0 L391.3041687011719,225.01806640625 L393.43060302734375,225.11868286132812 L394.6755065917969,225.30799865722656 L395.1773681640625,225.51319885253906 L395.2291259765625,225.66976928710938 M369.8553466796875,241.03802490234375 L370.14984130859375,241.0970916748047 L370.762451171875,241.14532470703125 L371.7469482421875,241.14962768554688 L373.13494873046875,241.07986450195312 L374.87945556640625,240.9639892578125 L376.83905029296875,240.81521606445312 L378.51104736328125,240.68756103515625 L379.59674072265625,240.60006713867188 M385.5769348144531,243.34359741210938 L385.5667419433594,243.504150390625 L385.5218811035156,243.89036560058594 L385.4183654785156,244.57981872558594 L385.2523193359375,245.58892822265625 L385.0374755859375,246.9002685546875 L384.80096435546875,248.44024658203125 L384.568115234375,250.08847045898438 L384.40582275390625,251.6709442138672 L384.359375,252.98426818847656 L384.4668273925781,253.8777618408203 L384.64337158203125,254.3400115966797 L384.80767822265625,254.4857177734375 M388.36114501953125,233.99327087402344 L388.34344482421875,233.87599182128906 L388.3070373535156,233.80319213867188 L388.2664794921875,233.78802490234375 L388.23626708984375,233.8435821533203 M399.66937255859375,247.36085510253906 L399.64544677734375,246.92169189453125 L399.4957580566406,246.16854858398438 L399.12518310546875,245.18408203125 L398.4720153808594,244.19033813476562 L397.533203125,243.3353271484375 L396.3511047363281,242.74859619140625 L394.9925537109375,242.5100860595703 L393.5677795410156,242.69467163085938 L392.2015686035156,243.31948852539062 L391.04766845703125,244.34954833984375 L390.24041748046875,245.67005920410156 L389.88580322265625,247.10987854003906 L390.0748291015625,248.4567413330078 L390.8742980957031,249.53038024902344 L392.24908447265625,250.19345092773438 L394.0720520019531,250.3946533203125 L396.10113525390625,250.15768432617188 L398.03326416015625,249.57504272460938 L399.6408386230469,248.7572021484375 L400.81402587890625,247.84779357910156 L401.54376220703125,246.96592712402344 L401.8973083496094,246.22239685058594 L401.967529296875,245.70458984375 L401.8310241699219,245.48793029785156 L401.57159423828125,245.62660217285156 L401.29949951171875,246.17236328125 L401.1194152832031,247.1157989501953 L401.0991516113281,248.414306640625 L401.2821350097656,249.98745727539062 L401.65484619140625,251.7608184814453 L402.14508056640625,253.66795349121094 L402.68743896484375,255.64979553222656 L403.1777648925781,257.61566162109375 L403.4998779296875,259.46014404296875 L403.5768737792969,261.07476806640625 L403.35589599609375,262.3783874511719 L402.8232421875,263.3087463378906 L402.04058837890625,263.8352355957031 L401.066162109375,263.94775390625 L399.952392578125,263.66107177734375 L398.7626953125,263.0304870605469 L397.5416564941406,262.138916015625 L396.3594665527344,261.0743103027344 L395.3555603027344,259.876220703125 L394.65655517578125,258.6018981933594 L394.3272705078125,257.31396484375 L394.2797546386719,256.2763671875 L394.3624267578125,255.6253204345703 M415.78546142578125,246.16937255859375 L415.745361328125,245.63194274902344 L415.5228576660156,244.81968688964844 L415.0291442871094,243.9124298095703 L414.2040100097656,243.1889190673828 L413.07647705078125,242.7415313720703 L411.72259521484375,242.62814331054688 L410.2472839355469,242.8408966064453 L408.7742004394531,243.38348388671875 L407.48809814453125,244.24383544921875 L406.5383605957031,245.35130310058594 L406.0665283203125,246.5938720703125 L406.2040710449219,247.84681701660156 L407.0068359375,248.94479370117188 L408.45947265625,249.75347900390625 L410.4586181640625,250.18865966796875 L412.7836608886719,250.2073516845703 L415.1783752441406,249.8283233642578 L417.3929748535156,249.13406372070312 L419.20892333984375,248.2135467529297 L420.4791564941406,247.18882751464844 L421.14337158203125,246.16416931152344 L421.2414855957031,245.2041015625 L420.9049072265625,244.3429718017578 L420.3298645019531,243.64154052734375 L419.734375,243.15567016601562 L419.28082275390625,242.93263244628906 L419.0263671875,242.90670776367188 L418.9398193359375,242.97718811035156 M451.181396484375,232.076171875 L451.0453186035156,231.33155822753906 L450.77520751953125,230.2620086669922 L450.32470703125,229.084228515625 L449.66705322265625,228.13656616210938 L448.7262268066406,227.4683380126953 L447.4783935546875,227.12498474121094 L445.9398498535156,227.12306213378906 L444.1761474609375,227.5465087890625 L442.298583984375,228.44134521484375 L440.417724609375,229.8227081298828 L438.6090393066406,231.67538452148438 L436.9166259765625,233.95782470703125 L435.3699951171875,236.58197021484375 L434.0220031738281,239.4404296875 L432.9582214355469,242.39117431640625 L432.2471923828125,245.25955200195312 L431.96624755859375,247.87384033203125 L432.1407165527344,250.0742950439453 L432.76580810546875,251.72975158691406 L433.83428955078125,252.7637939453125 L435.3118591308594,253.119140625 L437.1016540527344,252.7707977294922 L439.10760498046875,251.76239013671875 L441.1689147949219,250.17901611328125 L443.1181640625,248.14833068847656 L444.8553466796875,245.8215789794922 L446.303955078125,243.32687377929688 L447.3957824707031,240.7665557861328 L448.1265563964844,238.2547149658203 L448.49432373046875,235.91737365722656 L448.5435485839844,233.896240234375 L448.4046630859375,232.32989501953125 L448.1929016113281,231.31983947753906 L447.9822998046875,230.92514038085938 L447.80877685546875,231.16848754882812 L447.65350341796875,232.05267333984375 L447.51324462890625,233.5408172607422 L447.40191650390625,235.5341033935547 L447.3402099609375,237.88885498046875 L447.3453369140625,240.45664978027344 L447.4039611816406,243.07818603515625 L447.5020751953125,245.60629272460938 L447.66522216796875,247.90550231933594 L447.9408264160156,249.80979919433594 L448.3769836425781,251.19088745117188 L448.9727783203125,252.0132293701172 L449.5356750488281,252.37420654296875 L449.9300537109375,252.44972229003906 M453.7145080566406,243.6587371826172 L453.79510498046875,243.42041015625 L453.9229736328125,243.18341064453125 L454.05914306640625,243.12399291992188 L454.1445617675781,243.4351806640625 L454.1362609863281,244.1507568359375 L453.99072265625,245.21206665039062 L453.7025146484375,246.48886108398438 L453.3096008300781,247.84912109375 L452.87451171875,249.1448211669922 L452.48712158203125,250.24073791503906 L452.21685791015625,251.02850341796875 L452.091552734375,251.4004669189453 L452.1094055175781,251.28785705566406 L452.271240234375,250.66761779785156 L452.5811462402344,249.5845947265625 L453.04254150390625,248.14620971679688 L453.66033935546875,246.49911499023438 L454.4391784667969,244.77847290039062 L455.3704833984375,243.11993408203125 L456.4389343261719,241.633544921875 L457.62548828125,240.41354370117188 L458.8875732421875,239.52552795410156 L460.1884460449219,239.0092315673828 L461.5028381347656,238.85838317871094 L462.7974853515625,239.03793334960938 L464.03167724609375,239.46275329589844 L465.16033935546875,240.0288848876953 L466.12225341796875,240.63986206054688 L466.863525390625,241.2081756591797 L467.3739013671875,241.68011474609375 L467.6566162109375,242.02577209472656 L467.75634765625,242.23382568359375 L467.7412109375,242.3211669921875 L467.6644287109375,242.3397979736328 L467.58441162109375,242.3293914794922 L467.5600891113281,242.3222198486328 L467.64447021484375,242.3144073486328 L467.9158630371094,242.2915496826172 L468.44610595703125,242.21722412109375 L469.2603759765625,242.0526885986328 L470.37640380859375,241.77926635742188 L471.73895263671875,241.39337158203125 L473.28326416015625,240.91481018066406 L474.93060302734375,240.4022979736328 L476.57098388671875,239.89108276367188 L478.0811767578125,239.40496826171875 L479.36968994140625,238.9757080078125 L480.3483581542969,238.60223388671875 L480.97247314453125,238.28932189941406 L481.2162780761719,238.05967712402344 L481.0335693359375,237.92007446289062 L480.407958984375,237.90174865722656 L479.3377380371094,238.05055236816406 L477.87359619140625,238.38717651367188 L476.0881652832031,238.9120635986328 L474.0884094238281,239.60838317871094 L472.0040588378906,240.4151611328125 L470.03582763671875,241.25897216796875 L468.36981201171875,242.0630340576172 L467.20635986328125,242.76258850097656 L466.64593505859375,243.29090881347656 L466.6976623535156,243.6077880859375 L467.32489013671875,243.669921875 L468.4772033691406,243.46343994140625 L470.05596923828125,243.0276641845703 L471.96392822265625,242.46658325195312 L474.0336608886719,241.89100646972656 L476.0796813964844,241.4138641357422 L477.9445495605469,241.10874938964844 L479.52850341796875,241.0421905517578 L480.75653076171875,241.26783752441406 L481.6214294433594,241.8332977294922 L482.11920166015625,242.73045349121094 L482.29522705078125,243.90646362304688 L482.22698974609375,245.26805114746094 L482.0322265625,246.7217559814453 L481.79522705078125,248.17654418945312 L481.5959777832031,249.5633544921875 L481.4750061035156,250.80459594726562 L481.4505615234375,251.8193817138672 L481.52447509765625,252.55767822265625 L481.64166259765625,252.99632263183594 L481.7430419921875,253.18960571289062 M481.63726806640625,251.0377197265625 L481.5428466796875,250.81143188476562 L481.4474792480469,250.375732421875 L481.4332580566406,249.71990966796875 L481.6054992675781,248.89895629882812 L482.00579833984375,247.949462890625 L482.66571044921875,246.9109649658203 L483.587158203125,245.8046417236328 L484.7632141113281,244.66331481933594 L486.15386962890625,243.53147888183594 L487.6789855957031,242.4749755859375 L489.2313232421875,241.57281494140625 L490.70635986328125,240.89401245117188 L492.04791259765625,240.48695373535156 L493.2658386230469,240.39889526367188 L494.38092041015625,240.6692352294922 L495.392333984375,241.32260131835938 L496.274658203125,242.34120178222656 L496.9561767578125,243.6539306640625 L497.4071044921875,245.14370727539062 L497.648681640625,246.6815643310547 L497.7249755859375,248.13502502441406 L497.6810607910156,249.37815856933594 L497.54498291015625,250.28428649902344 L497.2814025878906,250.75161743164062 L496.84320068359375,250.73123168945312 L496.16497802734375,250.25064086914062 L495.1893615722656,249.4119110107422 L493.8910217285156,248.3610076904297 L492.3222351074219,247.25282287597656 L490.615966796875,246.2320556640625 L488.97833251953125,245.4014129638672 L487.63018798828125,244.82901000976562 L486.71343994140625,244.54425048828125 L486.28033447265625,244.53956604003906 L486.3092041015625,244.78689575195312 L486.7748107910156,245.24261474609375 L487.66705322265625,245.83041381835938 L488.98126220703125,246.46121215820312 L490.66033935546875,247.0342559814453 L492.6328125,247.46185302734375 L494.7550048828125,247.66848754882812 L496.89886474609375,247.61839294433594 L498.9432373046875,247.30125427246094 L500.78997802734375,246.68682861328125 L502.3638916015625,245.8090362548828 L503.6462707519531,244.7580108642578 L504.51751708984375,243.83140563964844 L504.992919921875,243.21791076660156 M509.7196044921875,228.7914581298828 L509.70648193359375,228.34764099121094 L509.7127685546875,227.79965209960938 L509.73016357421875,227.37057495117188 L509.73681640625,227.34295654296875 L509.7091064453125,227.8009490966797 L509.59600830078125,228.7544708251953 L509.3923645019531,230.1398468017578 L509.12738037109375,231.9272918701172 L508.8051452636719,234.03973388671875 L508.436279296875,236.37078857421875 L508.0450744628906,238.82284545898438 L507.6410827636719,241.2666015625 L507.25738525390625,243.56260681152344 L506.918212890625,245.57374572753906 L506.62884521484375,247.19468688964844 L506.427001953125,248.29954528808594 L506.3514709472656,248.84019470214844 L506.43487548828125,248.85202026367188 L506.6000671386719,248.593017578125 L506.7616271972656,248.2988739013672 M514.1461791992188,240.29638671875 L514.1043701171875,240.0393524169922 L513.9189453125,239.73785400390625 L513.4818725585938,239.5379180908203 L512.7090454101562,239.62059020996094 L511.606689453125,240.01904296875 L510.27911376953125,240.69754028320312 L508.89410400390625,241.5660400390625 L507.65966796875,242.55633544921875 L506.7606201171875,243.58811950683594 L506.32061767578125,244.5980987548828 L506.41314697265625,245.52322387695312 L507.05670166015625,246.30181884765625 L508.2459716796875,246.86563110351562 L509.95648193359375,247.17294311523438 L512.103759765625,247.20233154296875 L514.5410766601562,246.96315002441406 L517.0613403320312,246.48345947265625 L519.4459228515625,245.80856323242188 L521.5241088867188,244.97903442382812 L523.1962890625,244.0658721923828 L524.4180297851562,243.15650939941406 L525.208740234375,242.34738159179688 L525.6237182617188,241.7255859375 L525.7388916015625,241.3462677001953 L525.6528930664062,241.23199462890625 L525.44970703125,241.41371154785156 L525.1729736328125,241.8980712890625 L524.8662109375,242.67721557617188 L524.563232421875,243.6903839111328 L524.2949829101562,244.83938598632812 L524.1190185546875,246.0126953125 L524.0638427734375,247.104736328125 L524.1181640625,248.01255798339844 L524.2213134765625,248.6336212158203 L524.3118896484375,248.95809936523438 M523.6472778320312,232.61497497558594 L523.6549682617188,232.42462158203125 L523.677734375,232.20286560058594 L523.706298828125,232.02008056640625 L523.7311401367188,231.9467010498047 M554.1198120117188,229.57443237304688 L554.1226196289062,229.49526977539062 L554.1281127929688,229.51901245117188 L554.1151123046875,229.8103790283203 L554.0426025390625,230.53311157226562 L553.8655395507812,231.73001098632812 L553.5567016601562,233.38121032714844 L553.1107177734375,235.41506958007812 L552.5606079101562,237.75228881835938 L551.9383544921875,240.31268310546875 L551.25927734375,242.98243713378906 L550.554443359375,245.61532592773438 L549.905517578125,247.9853973388672 L549.408935546875,249.85816955566406 L549.152587890625,251.07736206054688 L549.100341796875,251.68295288085938 L549.1529541015625,251.85824584960938 M551.7977905273438,229.16371154785156 L551.7022094726562,228.85699462890625 L551.5968627929688,228.58587646484375 L551.5394287109375,228.57154846191406 L551.631103515625,229.02809143066406 L551.94140625,229.91732788085938 L552.51953125,231.08889770507812 L553.3947143554688,232.33273315429688 L554.6213989257812,233.47569274902344 L556.2069702148438,234.3397674560547 L558.1512451171875,234.79110717773438 L560.4011840820312,234.76536560058594 L562.8602905273438,234.26959228515625 L565.3740234375,233.3792724609375 L567.8095092773438,232.21771240234375 L570.00439453125,230.9420928955078 L571.8076171875,229.72698974609375 L573.1248168945312,228.72384643554688 L573.93896484375,228.04148864746094 L574.2669677734375,227.74874877929688 L574.210693359375,227.8833770751953 L573.8289794921875,228.49215698242188 L573.1456298828125,229.6171875 L572.2086181640625,231.2550506591797 L571.0814208984375,233.35272216796875 L569.8604125976562,235.822509765625 L568.6686401367188,238.53553771972656 L567.6002807617188,241.35971069335938 L566.727294921875,244.16270446777344 L566.1007080078125,246.76443481445312 L565.7340087890625,248.9996795654297 L565.58203125,250.57875061035156 L565.55859375,251.44740295410156 M579.0840454101562,242.88946533203125 L579.0633544921875,242.4177703857422 L578.9397583007812,241.77291870117188 L578.6182861328125,241.1415557861328 L578.0086059570312,240.78590393066406 L577.0775756835938,240.77700805664062 L575.85205078125,241.1584930419922 L574.4359741210938,241.9174041748047 L572.9710693359375,243.0369415283203 L571.622314453125,244.4322509765625 L570.5494995117188,245.9610137939453 L569.8886108398438,247.45101928710938 L569.7282104492188,248.7393341064453 L570.12158203125,249.68507385253906 L571.0359497070312,250.1844482421875 L572.379638671875,250.1907958984375 L574.0316162109375,249.72222900390625 L575.8466796875,248.84666442871094 L577.6582641601562,247.66836547851562 L579.3505249023438,246.3194580078125 L580.7852783203125,244.9523162841797 L581.8526000976562,243.7194061279297 L582.5364990234375,242.74371337890625 L582.8755493164062,242.11871337890625 L582.9241943359375,241.88015747070312 L582.7880859375,242.04530334472656 L582.5215454101562,242.6331024169922 L582.154052734375,243.62911987304688 L581.762939453125,244.9402313232422 L581.4287109375,246.4314727783203 L581.2363891601562,247.92160034179688 L581.28125,249.2454071044922 L581.6255493164062,250.27218627929688 L582.2737426757812,250.9097900390625 L583.2156982421875,251.08738708496094 L584.4000854492188,250.7895050048828 L585.7576904296875,250.04638671875 L587.2073974609375,248.94517517089844 L588.6717529296875,247.58816528320312 L590.048583984375,246.10125732421875 L591.2623291015625,244.6316680908203 L592.23095703125,243.3302001953125 L592.9146728515625,242.3184051513672 L593.3011474609375,241.6978302001953 L593.4047241210938,241.51499938964844 L593.2522583007812,241.77481079101562 L592.8980712890625,242.47604370117188 L592.399658203125,243.56040954589844 L591.8863525390625,244.89857482910156 L591.512939453125,246.33697509765625 L591.41748046875,247.71376037597656 L591.6812744140625,248.8623046875 L592.3414306640625,249.68252563476562 L593.3704833984375,250.1016845703125 L594.720947265625,250.08692932128906 L596.3187866210938,249.66445922851562 L598.0481567382812,248.90167236328125 L599.7418212890625,247.85601806640625 L601.2764892578125,246.62554931640625 L602.549560546875,245.32705688476562 L603.498779296875,244.09925842285156 L604.113037109375,243.07901000976562 L604.4237060546875,242.35691833496094 L604.4680786132812,241.9662628173828 L604.3228759765625,241.91978454589844 L604.065673828125,242.23980712890625 L603.7371826171875,242.93179321289062 L603.3826293945312,243.95013427734375 L603.0661010742188,245.1802215576172 L602.8701171875,246.4795684814453 L602.8740234375,247.7005615234375 L603.142333984375,248.74794006347656 L603.6798095703125,249.5363311767578 L604.4818115234375,249.98345947265625 L605.5240478515625,250.02247619628906 L606.7822875976562,249.62521362304688 L608.1915283203125,248.80101013183594 L609.6949462890625,247.61117553710938 L611.221435546875,246.1132354736328 L612.7192993164062,244.35598754882812 L614.13916015625,242.38624572753906 L615.4343872070312,240.2666473388672 L616.5389404296875,238.09458923339844 L617.419189453125,235.99949645996094 L618.0540771484375,234.1165771484375 L618.4296875,232.55809020996094 L618.5433959960938,231.4014434814453 L618.3958740234375,230.70687866210938 L617.9981689453125,230.53305053710938 L617.37158203125,230.91123962402344 L616.5702514648438,231.8592071533203 L615.6585693359375,233.3385772705078 L614.7136840820312,235.2532501220703 L613.8358154296875,237.4787139892578 L613.1322021484375,239.87257385253906 L612.6678466796875,242.255126953125 L612.5670776367188,244.47386169433594 L612.897216796875,246.3773956298828 L613.6326904296875,247.85520935058594 L614.4437255859375,248.8053436279297 L615.0711669921875,249.28253173828125 M627.5921630859375,244.74354553222656 L627.421630859375,244.23854064941406 L627.0736083984375,243.5063934326172 L626.4859619140625,242.70066833496094 L625.6563720703125,242.0859375 L624.5648193359375,241.7378692626953 L623.2520141601562,241.71522521972656 L621.8011474609375,242.02908325195312 L620.3538818359375,242.7037811279297 L619.0587768554688,243.68209838867188 L618.0849609375,244.87542724609375 L617.540283203125,246.1348114013672 L617.4998168945312,247.30577087402344 L617.9854125976562,248.2435302734375 L618.9595336914062,248.83128356933594 L620.3427734375,249.00196838378906 L622.0218505859375,248.75869750976562 L623.8421630859375,248.14585876464844 L625.6392822265625,247.2454071044922 L627.2593994140625,246.1736602783203 L628.571533203125,245.06350708007812 L629.506103515625,244.05307006835938 L630.0661010742188,243.2625274658203 L630.3125,242.77651977539062 L630.3197021484375,242.6313018798828 L630.1583862304688,242.84063720703125 L629.889892578125,243.40635681152344 L629.586669921875,244.2816162109375 L629.3251953125,245.35789489746094 L629.1866455078125,246.47946166992188 L629.2335205078125,247.4735870361328 L629.51416015625,248.1956024169922 L630.0565185546875,248.5501251220703 L630.8899536132812,248.48324584960938 L631.99755859375,247.9909210205078 L633.3162841796875,247.11257934570312 L634.7482299804688,245.9549560546875 L636.1790161132812,244.6774444580078 L637.491943359375,243.44935607910156 L638.611328125,242.41799926757812 L639.49853515625,241.69342041015625 L640.1495361328125,241.32168579101562 L640.5917358398438,241.32801818847656 L640.8511352539062,241.71485900878906 L640.946533203125,242.44845581054688 L640.9061279296875,243.45802307128906 L640.7806396484375,244.61744689941406 L640.6387939453125,245.768798828125 L640.54736328125,246.76925659179688 L640.5584716796875,247.50514221191406 L640.722900390625,247.89093017578125 L641.10400390625,247.8933563232422 L641.7474365234375,247.49620056152344 L642.6748046875,246.72804260253906 L643.832275390625,245.68978881835938 L645.1182861328125,244.523193359375 L646.4251098632812,243.38255310058594 L647.6669921875,242.40679931640625 L648.7821044921875,241.68101501464844 L649.752685546875,241.24267578125 L650.5491943359375,241.1190643310547 L651.1436157226562,241.31517028808594 L651.5167236328125,241.8273468017578 L651.6580810546875,242.61024475097656 L651.6202392578125,243.6012420654297 L651.4955444335938,244.6831512451172 L651.37353515625,245.70538330078125 L651.30908203125,246.5316619873047 L651.32861328125,247.07028198242188 L651.40673828125,247.2992706298828 L651.5517578125,247.31283569335938 L651.703857421875,247.23594665527344 L651.8236083984375,247.1578369140625 M661.102783203125,243.73660278320312 L661.2864990234375,243.4166717529297 L661.5582885742188,242.90455627441406 L661.8634033203125,242.2726593017578 L662.1090087890625,241.65658569335938 L662.2548828125,241.0952606201172 L662.2420654296875,240.59703063964844 L662.0313720703125,240.17132568359375 L661.5789794921875,239.8736114501953 L660.8656616210938,239.78414916992188 L659.912109375,239.98892211914062 L658.7650146484375,240.54441833496094 L657.5032958984375,241.4330291748047 L656.273681640625,242.58985900878906 L655.2515258789062,243.89413452148438 L654.5909423828125,245.2120361328125 L654.4193115234375,246.40396118164062 L654.7787475585938,247.35009765625 L655.649169921875,247.94546508789062 L656.9766845703125,248.1409149169922 L658.6563720703125,247.91055297851562 L660.52880859375,247.29949951171875 L662.4305419921875,246.37350463867188 L664.1861572265625,245.2299041748047 L665.663330078125,243.96519470214844 L666.7908935546875,242.69383239746094 L667.564697265625,241.5109100341797 L668.0260009765625,240.51754760742188 L668.2381591796875,239.7887420654297 L668.247314453125,239.39076232910156 L668.0804443359375,239.35655212402344 L667.7310791015625,239.70654296875 L667.2390747070312,240.42111206054688 L666.6932373046875,241.43710327148438 L666.2156372070312,242.66249084472656 L665.914306640625,243.99899291992188 L665.9876098632812,245.35586547851562 L666.5291748046875,246.63735961914062 L667.5638427734375,247.7438201904297 L668.6728515625,248.52291870117188 L669.5239868164062,248.9464111328125 " fill="none" stroke="black" stroke-linecap="round" stroke-width="1" /></svg>